<?xml version="1.0" encoding="UTF-8" standalone="no"?>
<!-- generated by Grace-5.1.25 -->

<svg
   xmlns:dc="http://purl.org/dc/elements/1.1/"
   xmlns:cc="http://creativecommons.org/ns#"
   xmlns:rdf="http://www.w3.org/1999/02/22-rdf-syntax-ns#"
   xmlns:svg="http://www.w3.org/2000/svg"
   xmlns="http://www.w3.org/2000/svg"
   xmlns:sodipodi="http://sodipodi.sourceforge.net/DTD/sodipodi-0.dtd"
   xmlns:inkscape="http://www.inkscape.org/namespaces/inkscape"
   xml:space="preserve"
   width="22.538097in"
   height="9.3465128in"
   viewBox="0 0 1622.743 672.94895"
   version="1.1"
   id="svg180"
   sodipodi:docname="histoprofile.svg"
   inkscape:version="0.92.3 (2405546, 2018-03-11)"><metadata
   id="metadata186"><rdf:RDF><cc:Work
       rdf:about=""><dc:format>image/svg+xml</dc:format><dc:type
         rdf:resource="http://purl.org/dc/dcmitype/StillImage" /><dc:title></dc:title></cc:Work></rdf:RDF></metadata><defs
   id="defs184">
  
  
  
  
  
  
  
  
  
  
  
  
  
  
  
 
   
   
   
   
   
   
   
   
   
   
   
   
   
   
  
   
   
   
   
   
   
   
   
   
   
   
   
   
   
   
   
   
   
   
   
   
   
   
   
   
   
   
   
   
   
   
   
  
  
  
  
  
  
  
  
  
  
  
  
  
  
  
  
  
  
  
  
  
  
  
  
  
  
  
  
  
  
  
  
 
   
   
   
   
   
   
   
   
   
   
   
   
   
   
  
   
   
   
   
   
   
   
   
   
   
   
   
   
   
   
   
   
   
   
   
  
   

  
   
  
   

  
   
  
   

  
   
  
   
  
   

   

   

   

   

   

   

   

   

   

   

  
   

   

   

   

   

  
   
  
   
  
   

   

  
   

   

   

   

   

   

  
   

   

   

   

   

  
   
  
   
  
   
  
   
  
   
  
   
  
   
  
   
  
   
  
   
  
   
   
   
   
  
   
  
   
  
   
  
   
  
   
  
   
  
   
  
   
  
   
  
   
  
   
  
   
  
   
  </defs><sodipodi:namedview
   pagecolor="#ffffff"
   bordercolor="#666666"
   borderopacity="1"
   objecttolerance="10"
   gridtolerance="10"
   guidetolerance="10"
   inkscape:pageopacity="0"
   inkscape:pageshadow="2"
   inkscape:window-width="1920"
   inkscape:window-height="1020"
   id="namedview182"
   showgrid="false"
   fit-margin-top="1"
   fit-margin-left="1"
   fit-margin-right="1"
   fit-margin-bottom="1"
   inkscape:zoom="0.37708265"
   inkscape:cx="1011.343"
   inkscape:cy="70.847791"
   inkscape:window-x="0"
   inkscape:window-y="31"
   inkscape:window-maximized="1"
   inkscape:current-layer="svg180" />
 
<path
   style="fill:none;stroke:#000000;stroke-width:1.83599997;stroke-linecap:butt;stroke-linejoin:miter;stroke-dasharray:none"
   d="m 150.1397,132.27583 2.8107,86.9902 2.8107,67.7234 2.8106,52.7621 2.8107,40.4965 2.8107,31.1941 2.8107,23.791 2.8107,17.7966 2.8107,13.908 2.8106,10.5736 2.8107,8.1204 2.8107,6.1947 2.8107,4.6335 2.8107,3.6944 2.8107,2.5434 2.8107,2.0728 2.8106,1.5916 2.8107,1.3263 2.8107,0.6487 2.8107,0.8526 2.8107,0.4601 2.8107,0.4867 2.8107,-0.2801 2.8107,0.4023 2.8107,0.4964 2.8107,0.3366 2.8107,0.4034 2.8106,0.0534 2.8107,0.6454 2.8107,-0.1692 2.8107,0.1422 2.8107,0.4477 2.8107,0.0851 2.8107,0.5082 2.8107,0.6591 2.8107,-0.1553 2.8106,0.3151 2.8107,-0.1424 2.8107,0.4608 2.8107,0.0709 2.8107,-0.3311 2.8107,0.3587 2.8107,-0.1188 2.8106,-0.2963 2.8107,0.0581 2.8107,-0.2581 2.8107,0.1085 2.8107,-0.0659 2.8107,-0.4544 2.8107,0.2468 2.8107,-0.8426 2.8106,-0.137 2.8107,-0.0328 2.8107,-0.2607 2.8107,-0.3078 2.8107,-0.9299 2.8107,-0.1303 2.8107,-0.5322 2.8107,-0.662 2.8107,-0.7617 2.8107,-0.2798 2.8107,-0.2726 2.8107,-0.8824 2.8106,0.147 2.8107,-0.7195 2.8107,-0.2214 2.8107,-0.0235 2.8107,-0.3227 2.8107,-0.5081 2.8106,-0.2762 2.8107,0.0941 2.8107,-0.2257 2.8107,0.2092 2.8107,-0.3207 2.8107,0.5966 2.8107,0.3784 2.8106,0.145 2.8107,0.7204 2.8107,0.0222 2.8107,0.575 2.8107,0.4114 2.8107,0.2256 2.8107,0.4496 2.8107,0.8783 2.8107,0.5965 2.8107,0.3863 2.8107,0.1195 2.8106,0.5351 2.8107,0.9587 2.8107,0.0838 2.8107,0.8633 2.8107,0.6539 2.8107,0.2451 2.8107,0.3613 2.8107,0.8614 2.8107,0.1021 2.8106,0.4063 2.8107,0.4502 2.8107,0.2094 2.8107,-0.0565 2.8107,0.3421 2.8107,-0.1425 2.8107,0.3541 2.8106,0.4996 2.8107,-0.2856 2.8107,0.1119 2.8107,-0.0229 2.8107,0.2491 2.8107,0.2814 2.8107,0.091 2.8107,0.0599 2.8106,0.3795 2.8107,-0.319 2.8107,0.0488 2.8107,0.0139 2.8107,0.0178 2.8107,0.0993 2.8107,0.2466 2.8107,-0.0646 2.8107,-0.102 2.8107,0.0894 2.8107,-0.2331 2.8107,0.1249 2.8106,0.4947 2.8108,0.1683 2.8108,-0.5336 2.8103,0.4425 2.8108,0.1721 2.8108,0.8134 2.8108,0.0757 2.8103,0.176 2.8108,-0.0481 2.8108,-0.0127 2.8108,0.514 2.8108,0.2027 2.8103,0.0829 2.8108,0.3373 2.8108,0.2999 2.8108,0.3573 2.8103,-0.017 2.8108,0.5878 2.8108,0.1979 2.8108,-0.0166 2.8108,0.0633 2.8103,0.5481 2.8108,0.0609 2.8108,0.4077 2.8107,-0.3741 2.8108,0.3967 2.8103,0.1394 2.8108,0.1385 2.8108,0.2309 2.8108,-0.0249 2.8103,0.4026 2.8108,-0.4657 2.8108,0.6404 2.8108,0.3473 2.8108,0.018 2.8103,0.505 2.8108,0.4221 2.8108,0.1172 2.8108,-0.1143 2.8108,0.4268 2.8103,-0.1268 2.8108,0.3348 2.8108,-0.1758 2.8108,0.4237 2.8103,-0.0627 2.8108,0.2544 2.8108,-0.0271 2.8108,0.0543 2.8107,0.0916 2.8103,-0.1538 2.8108,0.3904 2.8108,0.3417 2.8108,-0.2158 2.8108,0.2057 2.8103,0.1727 2.8108,-0.0394 2.8108,0.2482 2.8108,0.3157 2.8103,-0.3493 2.8108,0.3284 2.8108,-0.068 2.8108,0.4285 2.8108,-0.1785 2.8103,0.3158 2.8108,-0.097 2.8108,0.8159 2.8108,0.0812 2.8108,0.1356 2.8103,0.2471 2.8108,-0.0312 2.8108,0.3999 2.8107,-0.9942 2.8104,0.3283 2.8107,-0.3768 2.8108,-2.7211 2.8108,7.9448 2.8108,5.4438"
   id="path6"
   inkscape:connector-curvature="0" /><path
   style="fill:none;stroke:#ff0000;stroke-width:1.83599997;stroke-linecap:butt;stroke-linejoin:miter;stroke-dasharray:none"
   d="m 150.1397,148.41713 2.8107,86.7353 2.8107,67.4731 2.8106,52.5166 2.8107,40.2555 2.8107,30.9574 2.8107,23.5585 2.8107,17.5681 2.8107,13.6834 2.8106,10.3528 2.8107,7.9032 2.8107,5.981 2.8107,4.4232 2.8107,3.4875 2.8107,2.3397 2.8107,1.8721 2.8106,1.394 2.8107,1.1316 2.8107,0.4567 2.8107,0.6635 2.8107,0.2737 2.8107,0.3028 2.8107,-0.4614 2.8107,0.2234 2.8107,0.3199 2.8107,0.1625 2.8107,0.2315 2.8106,-0.1162 2.8107,0.4779 2.8107,-0.3345 2.8107,-0.0212 2.8107,0.2864 2.8107,-0.0744 2.8107,0.3508 2.8107,0.5034 2.8107,-0.309 2.8106,0.163 2.8107,-0.2927 2.8107,0.3122 2.8107,-0.076 2.8107,-0.4764 2.8107,0.2149 2.8107,-0.261 2.8106,-0.437 2.8107,-0.081 2.8107,-0.3959 2.8107,-0.0278 2.8107,-0.2008 2.8107,-0.588 2.8107,0.1147 2.8107,-0.9735 2.8106,-0.2667 2.8107,-0.1611 2.8107,-0.3878 2.8107,-0.4337 2.8107,-1.0546 2.8107,-0.2538 2.8107,-0.6546 2.8107,-0.7832 2.8107,-0.8819 2.8107,-0.3988 2.8107,-0.3906 2.8107,-0.9994 2.8106,0.0311 2.8107,-0.8344 2.8107,-0.3354 2.8107,-0.1364 2.8107,-0.4347 2.8107,-0.6192 2.8106,-0.3863 2.8107,-0.015 2.8107,-0.334 2.8107,0.1017 2.8107,-0.4271 2.8107,0.4908 2.8107,0.2735 2.8106,0.0411 2.8107,0.6171 2.8107,-0.0802 2.8107,0.4734 2.8107,0.3105 2.8107,0.1256 2.8107,0.3503 2.8107,0.7797 2.8107,0.4986 2.8107,0.2893 2.8107,0.023 2.8106,0.4394 2.8107,0.8637 2.8107,-0.0105 2.8107,0.7696 2.8107,0.5608 2.8107,0.1528 2.8107,0.2696 2.8107,0.7703 2.8107,0.0116 2.8106,0.3165 2.8107,0.3609 2.8107,0.1208 2.8107,-0.1445 2.8107,0.2547 2.8107,-0.2295 2.8107,0.2678 2.8106,0.4139 2.8107,-0.3707 2.8107,0.0272 2.8107,-0.107 2.8107,0.1655 2.8107,0.1984 2.8107,0.008 2.8107,-0.0221 2.8106,0.298 2.8107,-0.4 2.8107,-0.0316 2.8107,-0.0662 2.8107,-0.0617 2.8107,0.0202 2.8107,0.1681 2.8107,-0.1428 2.8107,-0.1797 2.8107,0.0122 2.8107,-0.3098 2.8107,0.0486 2.8106,0.4188 2.8108,0.0929 2.8108,-0.6086 2.8103,0.3679 2.8108,0.0979 2.8108,0.7396 2.8108,0.002 2.8103,0.1031 2.8108,-0.1206 2.8108,-0.0849 2.8108,0.4423 2.8108,0.1313 2.8103,0.012 2.8108,0.2666 2.8108,0.2297 2.8108,0.2875 2.8103,-0.0864 2.8108,0.5186 2.8108,0.1291 2.8108,-0.0849 2.8108,-0.005 2.8103,0.4805 2.8108,-0.007 2.8108,0.3407 2.8107,-0.4407 2.8108,0.3303 2.8103,0.0734 2.8108,0.0728 2.8108,0.1656 2.8108,-0.0899 2.8103,0.3379 2.8108,-0.5301 2.8108,0.5763 2.8108,0.2836 2.8108,-0.0455 2.8103,0.442 2.8108,0.3592 2.8108,0.0546 2.8108,-0.1766 2.8108,0.3649 2.8103,-0.1884 2.8108,0.2734 2.8108,-0.2369 2.8108,0.3629 2.8103,-0.1232 2.8108,0.1941 2.8108,-0.0872 2.8108,-0.005 2.8107,0.0321 2.8103,-0.213 2.8108,0.3315 2.8108,0.2831 2.8108,-0.2742 2.8108,0.1475 2.8103,0.1149 2.8108,-0.097 2.8108,0.1908 2.8108,0.2586 2.8103,-0.4062 2.8108,0.2718 2.8108,-0.1244 2.8108,0.3723 2.8108,-0.2344 2.8103,0.2602 2.8108,-0.1525 2.8108,0.7607 2.8108,0.0262 2.8108,0.0809 2.8103,0.1926 2.8108,-0.0855 2.8108,0.3458 2.8107,-1.0481 2.8104,0.2747 2.8107,-0.4303 2.8108,-2.7743 2.8108,7.8919 2.8108,5.3909"
   id="path10"
   inkscape:connector-curvature="0" /><path
   style="fill:none;stroke:#000000;stroke-width:0.91799998;stroke-linecap:butt;stroke-linejoin:miter;stroke-dasharray:none"
   d="m 128.7131,560.67583 h 612"
   id="path14"
   inkscape:connector-curvature="0" /><path
   style="fill:none;stroke:#000000;stroke-width:0.91799998;stroke-linecap:butt;stroke-linejoin:miter;stroke-dasharray:none"
   d="m 128.7131,560.67583 v -6.12"
   id="path18"
   inkscape:connector-curvature="0" /><path
   style="fill:none;stroke:#000000;stroke-width:0.91799998;stroke-linecap:butt;stroke-linejoin:miter;stroke-dasharray:none"
   d="m 128.7131,132.27583 v 6.12"
   id="path20"
   inkscape:connector-curvature="0" /><path
   style="fill:none;stroke:#000000;stroke-width:0.91799998;stroke-linecap:butt;stroke-linejoin:miter;stroke-dasharray:none"
   d="m 373.5131,560.67583 v -6.12"
   id="path22"
   inkscape:connector-curvature="0" /><path
   style="fill:none;stroke:#000000;stroke-width:0.91799998;stroke-linecap:butt;stroke-linejoin:miter;stroke-dasharray:none"
   d="m 618.3131,560.67583 v -6.12"
   id="path26"
   inkscape:connector-curvature="0" /><path
   style="fill:none;stroke:#000000;stroke-width:0.91799998;stroke-linecap:butt;stroke-linejoin:miter;stroke-dasharray:none"
   d="m 251.1131,560.67583 v -12.24"
   id="path30"
   inkscape:connector-curvature="0" /><path
   style="fill:none;stroke:#000000;stroke-width:0.91799998;stroke-linecap:butt;stroke-linejoin:miter;stroke-dasharray:none"
   d="m 495.9131,560.67583 v -12.24"
   id="path34"
   inkscape:connector-curvature="0" /><path
   style="fill:none;stroke:#000000;stroke-width:0.91799998;stroke-linecap:butt;stroke-linejoin:miter;stroke-dasharray:none"
   d="m 740.7131,560.67583 v -12.24"
   id="path38"
   inkscape:connector-curvature="0" /><path
   style="fill:none;stroke:#000000;stroke-width:0.91799998;stroke-linecap:butt;stroke-linejoin:miter;stroke-dasharray:none"
   d="m 128.7131,560.67583 v -428.4"
   id="path56"
   inkscape:connector-curvature="0" /><path
   style="fill:none;stroke:#000000;stroke-width:0.91799998;stroke-linecap:butt;stroke-linejoin:miter;stroke-dasharray:none"
   d="m 128.7131,530.07583 h 6.12"
   id="path60"
   inkscape:connector-curvature="0" /><path
   style="fill:none;stroke:#000000;stroke-width:0.91799998;stroke-linecap:butt;stroke-linejoin:miter;stroke-dasharray:none"
   d="m 128.7131,468.87583 h 6.12"
   id="path64"
   inkscape:connector-curvature="0" /><path
   style="fill:none;stroke:#000000;stroke-width:0.91799998;stroke-linecap:butt;stroke-linejoin:miter;stroke-dasharray:none"
   d="m 128.7131,407.67583 h 6.12"
   id="path68"
   inkscape:connector-curvature="0" /><path
   style="fill:none;stroke:#000000;stroke-width:0.91799998;stroke-linecap:butt;stroke-linejoin:miter;stroke-dasharray:none"
   d="m 128.7131,346.47583 h 6.12"
   id="path72"
   inkscape:connector-curvature="0" /><path
   style="fill:none;stroke:#000000;stroke-width:0.91799998;stroke-linecap:butt;stroke-linejoin:miter;stroke-dasharray:none"
   d="m 128.7131,285.27583 h 6.12"
   id="path76"
   inkscape:connector-curvature="0" /><path
   style="fill:none;stroke:#000000;stroke-width:0.91799998;stroke-linecap:butt;stroke-linejoin:miter;stroke-dasharray:none"
   d="m 128.7131,224.07583 h 6.12"
   id="path80"
   inkscape:connector-curvature="0" /><path
   style="fill:none;stroke:#000000;stroke-width:0.91799998;stroke-linecap:butt;stroke-linejoin:miter;stroke-dasharray:none"
   d="m 128.7131,162.87583 h 6.12"
   id="path84"
   inkscape:connector-curvature="0" /><path
   style="fill:none;stroke:#000000;stroke-width:0.91799998;stroke-linecap:butt;stroke-linejoin:miter;stroke-dasharray:none"
   d="m 128.7131,560.67583 h 12.24"
   id="path88"
   inkscape:connector-curvature="0" /><path
   style="fill:none;stroke:#000000;stroke-width:0.91799998;stroke-linecap:butt;stroke-linejoin:miter;stroke-dasharray:none"
   d="m 740.7131,560.67583 h -12.24"
   id="path90"
   inkscape:connector-curvature="0" /><path
   style="fill:none;stroke:#000000;stroke-width:0.91799998;stroke-linecap:butt;stroke-linejoin:miter;stroke-dasharray:none"
   d="m 128.7131,499.47583 h 12.24"
   id="path92"
   inkscape:connector-curvature="0" /><path
   style="fill:none;stroke:#000000;stroke-width:0.91799998;stroke-linecap:butt;stroke-linejoin:miter;stroke-dasharray:none"
   d="m 128.7131,438.27583 h 12.24"
   id="path96"
   inkscape:connector-curvature="0" /><path
   style="fill:none;stroke:#000000;stroke-width:0.91799998;stroke-linecap:butt;stroke-linejoin:miter;stroke-dasharray:none"
   d="m 128.7131,377.07583 h 12.24"
   id="path100"
   inkscape:connector-curvature="0" /><path
   style="fill:none;stroke:#000000;stroke-width:0.91799998;stroke-linecap:butt;stroke-linejoin:miter;stroke-dasharray:none"
   d="m 128.7131,315.87583 h 12.24"
   id="path104"
   inkscape:connector-curvature="0" /><path
   style="fill:none;stroke:#000000;stroke-width:0.91799998;stroke-linecap:butt;stroke-linejoin:miter;stroke-dasharray:none"
   d="m 128.7131,254.67583 h 12.24"
   id="path108"
   inkscape:connector-curvature="0" /><path
   style="fill:none;stroke:#000000;stroke-width:0.91799998;stroke-linecap:butt;stroke-linejoin:miter;stroke-dasharray:none"
   d="m 128.7131,193.47583 h 12.24"
   id="path112"
   inkscape:connector-curvature="0" /><path
   style="fill:none;stroke:#000000;stroke-width:0.91799998;stroke-linecap:butt;stroke-linejoin:miter;stroke-dasharray:none"
   d="m 128.7131,132.27583 h 12.24"
   id="path116"
   inkscape:connector-curvature="0" /><text
   style="font-style:normal;font-weight:normal;font-size:17.13599968px;font-family:Times, 'Nimbus Roman No9 L';fill:#000000;fill-rule:nonzero;stroke-width:0.028"
   id="text122"
   x="87.533539"
   y="569.94385"><tspan
     style="font-size:28px"
     id="tspan1406">-70</tspan></text>


<text
   style="font-style:normal;font-weight:normal;font-size:17.13599968px;font-family:Times, 'Nimbus Roman No9 L';fill:#000000;fill-rule:nonzero;stroke-width:0.028"
   id="text124"
   x="87.533539"
   y="508.85583"><tspan
     style="font-size:28px"
     id="tspan1404">-60</tspan></text>


<text
   style="font-style:normal;font-weight:normal;font-size:17.13599968px;font-family:Times, 'Nimbus Roman No9 L';fill:#000000;fill-rule:nonzero;stroke-width:0.028"
   id="text126"
   x="87.533539"
   y="447.71182"><tspan
     style="font-size:28px"
     id="tspan1402">-50</tspan></text>


<text
   style="font-style:normal;font-weight:normal;font-size:17.13599968px;font-family:Times, 'Nimbus Roman No9 L';fill:#000000;fill-rule:nonzero;stroke-width:0.028"
   id="text128"
   x="87.533539"
   y="386.34384"><tspan
     style="font-size:28px"
     id="tspan1400">-40</tspan></text>


<text
   style="font-style:normal;font-weight:normal;font-size:17.13599968px;font-family:Times, 'Nimbus Roman No9 L';fill:#000000;fill-rule:nonzero;stroke-width:0.028"
   id="text130"
   x="87.533539"
   y="325.14383"><tspan
     style="font-size:28px"
     id="tspan1398">-30</tspan></text>


<text
   style="font-style:normal;font-weight:normal;font-size:17.13599968px;font-family:Times, 'Nimbus Roman No9 L';fill:#000000;fill-rule:nonzero;stroke-width:0.028"
   id="text132"
   x="87.533539"
   y="263.94382"><tspan
     style="font-size:28px"
     id="tspan1396">-20</tspan></text>


<text
   style="font-style:normal;font-weight:normal;font-size:17.13599968px;font-family:Times, 'Nimbus Roman No9 L';fill:#000000;fill-rule:nonzero;stroke-width:0.028"
   id="text134"
   x="87.533539"
   y="202.74384"><tspan
     style="font-size:28px"
     id="tspan1394">-10</tspan></text>


<text
   style="font-style:normal;font-weight:normal;font-size:17.13599968px;font-family:Times, 'Nimbus Roman No9 L';fill:#000000;fill-rule:nonzero;stroke-width:0.028"
   id="text136"
   x="110.8851"
   y="141.54382"><tspan
     style="font-size:28px"
     id="tspan1392">0</tspan></text>


<path
   style="fill:#ffffff;fill-rule:nonzero"
   d="m 404.1131,162.87583 v 46.36 h 224.878 v -46.36 z"
   id="path150"
   inkscape:connector-curvature="0" /><path
   style="fill:none;stroke:#000000;stroke-width:1.19645417;stroke-linecap:butt;stroke-linejoin:miter;stroke-dasharray:none"
   d="m 406.28546,158.60197 v 53.22572 h 332.71762 v -53.22572 z"
   id="path154"
   inkscape:connector-curvature="0" /><g
   id="g1438"><text
   y="180.48079"
   x="447.87112"
   id="text158"
   style="font-style:normal;font-weight:normal;font-size:17.13599968px;font-family:Times, 'Nimbus Roman No9 L';fill:#000000;fill-rule:nonzero;stroke-width:0.028"><tspan
     id="tspan1428"
     style="font-size:28px">Uncorrected US Potential</tspan></text>


<path
   inkscape:connector-curvature="0"
   id="path162"
   d="m 411.1511,171.11479 h 24.48"
   style="fill:none;stroke:#000000;stroke-width:1.83599997;stroke-linecap:butt;stroke-linejoin:miter;stroke-dasharray:none" /><text
   y="202.99687"
   x="447.87112"
   id="text166"
   style="font-style:normal;font-weight:normal;font-size:17.13599968px;font-family:Times, 'Nimbus Roman No9 L';fill:#000000;fill-rule:nonzero;stroke-width:0.028"><tspan
     id="tspan1430"
     style="font-size:28px">Corrected US potential</tspan></text>


<path
   inkscape:connector-curvature="0"
   id="path170"
   d="m 411.1511,196.47287 h 24.48"
   style="fill:none;stroke:#ff0000;stroke-width:1.83599997;stroke-linecap:butt;stroke-linejoin:miter;stroke-dasharray:none" /></g><text
   style="font-style:normal;font-weight:normal;font-size:25.70400047px;font-family:Times, 'Nimbus Roman No9 L';fill:#000000;fill-rule:nonzero;stroke-width:0.042"
   id="text174"
   x="269.72311"
   y="74.555832"><tspan
     style="font-size:40px"
     id="tspan1440">Pyrimidine US PMF</tspan></text>


<path
   style="fill:none;stroke:#00ff00;stroke-width:0.91799998;stroke-linecap:butt;stroke-linejoin:miter;stroke-dasharray:none"
   id="path5175"
   d="m 950.31213,556.32143 2.8107,-47.1304 2.8107,-181.6485 2.8106,-150.1854 2.8107,113.6209 2.8107,170.6343 2.8107,76.2454 2.8107,18.4423 2.8107,2.5615 2.8106,0.3201 h 2.8107 2.8107 2.8107 2.8107 2.8107 2.8107 2.8106 2.8107 2.81067 2.8107 2.8107 2.8107 2.8107 2.8107 2.8107 2.8107 2.8107 2.8106 2.8107 2.8107 2.8107 2.8107 2.8107 2.8107 2.8107 2.8107 2.8106 2.8107 2.8107 2.8107 2.8107 2.8107 2.8107 2.8106 2.8107 2.8107 2.8107 2.8107 2.8107 2.8107 2.8107 2.8106 2.8107 2.8107 2.8107 2.8107 2.8107 2.8107 2.8107 2.8107 2.8107 2.8107 2.8107 2.8106 2.8107 2.8107 2.8107 2.8107 2.8107 2.8106 2.8107 2.8107 2.8107 2.8107 2.8107 2.8107 2.8106 2.8107 2.8107 2.8107 2.8107 2.8107 2.8107 2.8107 2.8107 2.8107 2.8107 2.8106 2.8107 2.8107 2.8107 2.8107 2.8107 2.8107 2.8107 2.8107 2.8106 2.8107 2.8107 2.8107 2.8107 2.8107 2.8107 2.8106 2.8107 2.8107 2.8107 2.8107 2.8107 2.8107 2.8107 2.8106 2.8107 2.8107 2.8107 2.8107 2.8107 2.8107 2.8107 2.8107 2.8107 2.8107 2.8107 2.8106 2.8108 2.8108 2.8103 2.8108 2.8108 2.8108 2.8103 2.8108 2.8108 2.8108 2.8108 2.8103 2.8108 2.8108 2.8108 2.8103 2.8108 2.8108 2.8108 2.8108 2.8103 2.8108 2.8108 2.8107 2.8108 2.8103 2.8108 2.8108 2.8108 2.8103 2.8108 2.8108 2.8108 2.8108 2.8103 2.8108 2.8108 2.8108 2.8108 2.8103 2.8108 2.8108 2.8108 2.8103 2.8108 2.8108 2.8108 2.8107 2.8103 2.8108 2.8108 2.8108 2.8108 2.8103 2.8108 2.8108 2.8108 2.8103 2.8108 2.8108 2.8108 2.8108 2.8103 2.8108 2.8108 2.8108 2.8108 2.8103 2.8108 2.8108 2.8107 2.8104 2.8107 2.8108 2.8108 2.8108"
   inkscape:connector-curvature="0" /><path
   style="fill:none;stroke:#0000ff;stroke-width:0.91799998;stroke-linecap:butt;stroke-linejoin:miter;stroke-dasharray:none"
   id="path5179"
   d="m 950.31213,559.18163 h 2.8107 2.8107 2.8106 2.8107 2.8107 2.8107 2.8107 2.8107 2.8106 2.8107 2.8107 2.8107 2.8107 2.8107 2.8107 2.8106 2.8107 2.81067 2.8107 2.8107 2.8107 2.8107 2.8107 2.8107 2.8107 2.8107 2.8106 2.8107 l 2.8107,-0.0427 2.8107,-0.0213 2.8107,-0.1281 2.8107,-0.3415 2.8107,-0.8325 2.8107,-1.2807 2.8107,-2.476 2.8106,-3.8422 2.8107,-7.8551 2.8107,-8.6448 2.8107,-12.5937 2.8107,-17.2043 2.8107,-17.802 2.8107,-15.2192 2.8106,-12.1028 2.8107,-8.5381 2.8107,1.6649 2.8107,3.7568 2.8107,12.487 2.8107,17.8447 2.8107,16.4785 2.8107,18.6772 2.8106,12.2735 2.8107,8.9864 2.8107,7.5776 2.8107,3.9488 2.8107,2.5828 2.8107,1.3234 2.8107,0.7044 2.8107,0.4056 2.8107,0.1707 2.8107,0.0427 h 2.8107 2.8107 2.8106 2.8107 2.8107 2.8107 2.8107 2.8107 2.8106 2.8107 2.8107 2.8107 2.8107 2.8107 2.8107 2.8106 2.8107 2.8107 2.8107 2.8107 2.8107 2.8107 2.8107 2.8107 2.8107 2.8107 2.8106 2.8107 2.8107 2.8107 2.8107 2.8107 2.8107 2.8107 2.8107 2.8106 2.8107 2.8107 2.8107 2.8107 2.8107 2.8107 2.8106 2.8107 2.8107 2.8107 2.8107 2.8107 2.8107 2.8107 2.8106 2.8107 2.8107 2.8107 2.8107 2.8107 2.8107 2.8107 2.8107 2.8107 2.8107 2.8107 2.8106 2.8108 2.8108 2.8103 2.8108 2.8108 2.8108 2.8103 2.8108 2.8108 2.8108 2.8108 2.8103 2.8108 2.8108 2.8108 2.8103 2.8108 2.8108 2.8108 2.8108 2.8103 2.8108 2.8108 2.8107 2.8108 2.8103 2.8108 2.8108 2.8108 2.8103 2.8108 2.8108 2.8108 2.8108 2.8103 2.8108 2.8108 2.8108 2.8108 2.8103 2.8108 2.8108 2.8108 2.8103 2.8108 2.8108 2.8108 2.8107 2.8103 2.8108 2.8108 2.8108 2.8108 2.8103 2.8108 2.8108 2.8108 2.8103 2.8108 2.8108 2.8108 2.8108 2.8103 2.8108 2.8108 2.8108 2.8108 2.8103 2.8108 2.8108 2.8107 2.8104 2.8107 2.8108 2.8108 2.8108"
   inkscape:connector-curvature="0" /><path
   style="fill:none;stroke:#ffff00;stroke-width:0.91799998;stroke-linecap:butt;stroke-linejoin:miter;stroke-dasharray:none"
   id="path5183"
   d="m 950.31213,559.18163 h 2.8107 2.8107 2.8106 2.8107 2.8107 2.8107 2.8107 2.8107 2.8106 2.8107 2.8107 2.8107 2.8107 2.8107 2.8107 2.8106 2.8107 2.81067 2.8107 2.8107 2.8107 2.8107 2.8107 2.8107 2.8107 2.8107 2.8106 2.8107 2.8107 2.8107 2.8107 2.8107 2.8107 2.8107 2.8107 l 2.8106,-0.0213 2.8107,-0.0214 2.8107,-0.0853 2.8107,-0.0641 2.8107,-0.0213 2.8107,-0.8111 2.8107,-0.555 2.8106,-2.0278 2.8107,-3.2445 2.8107,-5.8273 2.8107,-7.4708 2.8107,-11.5051 2.8107,-14.1947 2.8107,-19.4455 2.8107,-15.6461 2.8106,-15.2619 2.8107,-11.0355 2.8107,-5.2083 2.8107,4.2904 2.8107,13.533 2.8107,12.7858 2.8107,18.2502 2.8107,18.3996 2.8107,14.6856 2.8107,10.63 2.8107,6.6597 2.8107,6.8518 2.8106,2.6895 2.8107,1.8571 2.8107,0.8324 2.8107,0.5337 2.8107,0.2775 2.8107,0.128 2.8106,0.0214 2.8107,0.0213 h 2.8107 2.8107 2.8107 2.8107 2.8107 2.8106 2.8107 2.8107 2.8107 2.8107 2.8107 2.8107 2.8107 2.8107 2.8107 2.8107 2.8106 2.8107 2.8107 2.8107 2.8107 2.8107 2.8107 2.8107 2.8107 2.8106 2.8107 2.8107 2.8107 2.8107 2.8107 2.8107 2.8106 2.8107 2.8107 2.8107 2.8107 2.8107 2.8107 2.8107 2.8106 2.8107 2.8107 2.8107 2.8107 2.8107 2.8107 2.8107 2.8107 2.8107 2.8107 2.8107 2.8106 2.8108 2.8108 2.8103 2.8108 2.8108 2.8108 2.8103 2.8108 2.8108 2.8108 2.8108 2.8103 2.8108 2.8108 2.8108 2.8103 2.8108 2.8108 2.8108 2.8108 2.8103 2.8108 2.8108 2.8107 2.8108 2.8103 2.8108 2.8108 2.8108 2.8103 2.8108 2.8108 2.8108 2.8108 2.8103 2.8108 2.8108 2.8108 2.8108 2.8103 2.8108 2.8108 2.8108 2.8103 2.8108 2.8108 2.8108 2.8107 2.8103 2.8108 2.8108 2.8108 2.8108 2.8103 2.8108 2.8108 2.8108 2.8103 2.8108 2.8108 2.8108 2.8108 2.8103 2.8108 2.8108 2.8108 2.8108 2.8103 2.8108 2.8108 2.8107 2.8104 2.8107 2.8108 2.8108 2.8108"
   inkscape:connector-curvature="0" /><path
   style="fill:none;stroke:#bc8f8f;stroke-width:0.91799998;stroke-linecap:butt;stroke-linejoin:miter;stroke-dasharray:none"
   id="path5187"
   d="m 950.31213,559.18163 h 2.8107 2.8107 2.8106 2.8107 2.8107 2.8107 2.8107 2.8107 2.8106 2.8107 2.8107 2.8107 2.8107 2.8107 2.8107 2.8106 2.8107 2.81067 2.8107 2.8107 2.8107 2.8107 2.8107 2.8107 2.8107 2.8107 2.8106 2.8107 2.8107 2.8107 2.8107 2.8107 2.8107 2.8107 2.8107 2.8106 2.8107 2.8107 2.8107 2.8107 2.8107 2.8107 2.8106 2.8107 2.8107 l 2.8107,-0.064 2.8107,0.064 2.8107,-0.1707 2.8107,-0.3202 2.8107,-0.4269 2.8106,-1.2167 2.8107,-3.0524 2.8107,-4.0769 2.8107,-7.3001 2.8107,-8.4314 2.8107,-12.9566 2.8107,-15.9876 2.8107,-17.0122 2.8107,-14.1093 2.8107,-13.6823 2.8107,-7.172 2.8107,0.8111 2.8106,2.903 2.8107,13.9598 2.8107,15.0271 2.8107,15.0484 2.8107,15.1552 2.8107,12.0814 2.8106,11.5478 2.8107,8.2606 2.8107,4.4825 2.8107,3.3939 2.8107,1.8357 2.8107,0.491 2.8107,0.4696 2.8106,0.3415 2.8107,0.0213 2.8107,0.0641 h 2.8107 l 2.8107,0.0213 h 2.8107 2.8107 2.8107 2.8107 2.8107 2.8107 2.8106 2.8107 2.8107 2.8107 2.8107 2.8107 2.8107 2.8107 2.8107 2.8106 2.8107 2.8107 2.8107 2.8107 2.8107 2.8107 2.8106 2.8107 2.8107 2.8107 2.8107 2.8107 2.8107 2.8107 2.8106 2.8107 2.8107 2.8107 2.8107 2.8107 2.8107 2.8107 2.8107 2.8107 2.8107 2.8107 2.8106 2.8108 2.8108 2.8103 2.8108 2.8108 2.8108 2.8103 2.8108 2.8108 2.8108 2.8108 2.8103 2.8108 2.8108 2.8108 2.8103 2.8108 2.8108 2.8108 2.8108 2.8103 2.8108 2.8108 2.8107 2.8108 2.8103 2.8108 2.8108 2.8108 2.8103 2.8108 2.8108 2.8108 2.8108 2.8103 2.8108 2.8108 2.8108 2.8108 2.8103 2.8108 2.8108 2.8108 2.8103 2.8108 2.8108 2.8108 2.8107 2.8103 2.8108 2.8108 2.8108 2.8108 2.8103 2.8108 2.8108 2.8108 2.8103 2.8108 2.8108 2.8108 2.8108 2.8103 2.8108 2.8108 2.8108 2.8108 2.8103 2.8108 2.8108 2.8107 2.8104 2.8107 2.8108 2.8108 2.8108"
   inkscape:connector-curvature="0" /><path
   style="fill:none;stroke:#dcdcdc;stroke-width:0.91799998;stroke-linecap:butt;stroke-linejoin:miter;stroke-dasharray:none"
   id="path5191"
   d="m 950.31213,559.18163 h 2.8107 2.8107 2.8106 2.8107 2.8107 2.8107 2.8107 2.8107 2.8106 2.8107 2.8107 2.8107 2.8107 2.8107 2.8107 2.8106 2.8107 2.81067 2.8107 2.8107 2.8107 2.8107 2.8107 2.8107 2.8107 2.8107 2.8106 2.8107 2.8107 2.8107 2.8107 2.8107 2.8107 2.8107 2.8107 2.8106 2.8107 2.8107 2.8107 2.8107 2.8107 2.8107 2.8106 2.8107 2.8107 2.8107 2.8107 2.8107 2.8107 2.8107 2.8106 2.8107 2.8107 l 2.8107,-0.0213 2.8107,-0.0214 2.8107,-0.0213 2.8107,-0.1494 2.8107,-0.4056 2.8107,-0.6403 2.8107,-1.3021 2.8107,-2.8816 2.8107,-3.7781 2.8106,-7.3855 2.8107,-9.1144 2.8107,-12.8286 2.8107,-15.5393 2.8107,-15.0485 2.8107,-12.2095 2.8106,-12.7858 2.8107,-9.8188 2.8107,0.8324 2.8107,0.9179 2.8107,14.8563 2.8107,12.3376 2.8107,14.0025 2.8106,16.2438 2.8107,13.3621 2.8107,10.8434 2.8107,7.5136 2.8107,5.4003 2.8107,4.0556 2.8107,1.729 2.8107,0.683 2.8107,0.6831 2.8107,0.1921 2.8107,0.2134 2.8106,0.0854 2.8107,-0.0427 2.8107,0.0214 2.8107,0.0213 h 2.8107 2.8107 2.8107 2.8107 2.8107 2.8106 2.8107 2.8107 2.8107 2.8107 2.8107 2.8107 2.8106 2.8107 2.8107 2.8107 2.8107 2.8107 2.8107 2.8107 2.8106 2.8107 2.8107 2.8107 2.8107 2.8107 2.8107 2.8107 2.8107 2.8107 2.8107 2.8107 2.8106 2.8108 2.8108 2.8103 2.8108 2.8108 2.8108 2.8103 2.8108 2.8108 2.8108 2.8108 2.8103 2.8108 2.8108 2.8108 2.8103 2.8108 2.8108 2.8108 2.8108 2.8103 2.8108 2.8108 2.8107 2.8108 2.8103 2.8108 2.8108 2.8108 2.8103 2.8108 2.8108 2.8108 2.8108 2.8103 2.8108 2.8108 2.8108 2.8108 2.8103 2.8108 2.8108 2.8108 2.8103 2.8108 2.8108 2.8108 2.8107 2.8103 2.8108 2.8108 2.8108 2.8108 2.8103 2.8108 2.8108 2.8108 2.8103 2.8108 2.8108 2.8108 2.8108 2.8103 2.8108 2.8108 2.8108 2.8108 2.8103 2.8108 2.8108 2.8107 2.8104 2.8107 2.8108 2.8108 2.8108"
   inkscape:connector-curvature="0" /><path
   style="fill:none;stroke:#9400d3;stroke-width:0.91799998;stroke-linecap:butt;stroke-linejoin:miter;stroke-dasharray:none"
   id="path5195"
   d="m 950.31213,559.18163 h 2.8107 2.8107 2.8106 2.8107 2.8107 2.8107 2.8107 2.8107 2.8106 2.8107 2.8107 2.8107 2.8107 2.8107 2.8107 2.8106 2.8107 2.81067 2.8107 2.8107 2.8107 2.8107 2.8107 2.8107 2.8107 2.8107 2.8106 2.8107 2.8107 2.8107 2.8107 2.8107 2.8107 2.8107 2.8107 2.8106 2.8107 2.8107 2.8107 2.8107 2.8107 2.8107 2.8106 2.8107 2.8107 2.8107 2.8107 2.8107 2.8107 2.8107 2.8106 2.8107 2.8107 2.8107 2.8107 2.8107 2.8107 2.8107 2.8107 2.8107 2.8107 2.8107 l 2.8106,-0.0427 2.8107,0.0427 2.8107,-0.128 2.8107,-0.0427 2.8107,-0.3842 2.8107,-0.4056 2.8106,-1.2807 2.8107,-2.5188 2.8107,-4.2904 2.8107,-3.7781 2.8107,-10.139 2.8107,-12.5937 2.8107,-13.597 2.8106,-15.7955 2.8107,-18.9973 2.8107,-11.0569 2.8107,-9.3705 2.8107,-3.1165 2.8107,5.0802 2.8107,10.2885 2.8107,12.2735 2.8107,17.8447 2.8107,15.0057 2.8107,15.8382 2.8106,11.2063 2.8107,6.0834 2.8107,7.1293 2.8107,2.7536 2.8107,2.0278 2.8107,1.2807 2.8107,0.4269 2.8107,0.0427 2.8107,0.0854 2.8106,0.1067 2.8107,0.0213 h 2.8107 2.8107 2.8107 2.8107 2.8107 2.8106 2.8107 2.8107 2.8107 2.8107 2.8107 2.8107 2.8107 2.8106 2.8107 2.8107 2.8107 2.8107 2.8107 2.8107 2.8107 2.8107 2.8107 2.8107 2.8107 2.8106 2.8108 2.8108 2.8103 2.8108 2.8108 2.8108 2.8103 2.8108 2.8108 2.8108 2.8108 2.8103 2.8108 2.8108 2.8108 2.8103 2.8108 2.8108 2.8108 2.8108 2.8103 2.8108 2.8108 2.8107 2.8108 2.8103 2.8108 2.8108 2.8108 2.8103 2.8108 2.8108 2.8108 2.8108 2.8103 2.8108 2.8108 2.8108 2.8108 2.8103 2.8108 2.8108 2.8108 2.8103 2.8108 2.8108 2.8108 2.8107 2.8103 2.8108 2.8108 2.8108 2.8108 2.8103 2.8108 2.8108 2.8108 2.8103 2.8108 2.8108 2.8108 2.8108 2.8103 2.8108 2.8108 2.8108 2.8108 2.8103 2.8108 2.8108 2.8107 2.8104 2.8107 2.8108 2.8108 2.8108"
   inkscape:connector-curvature="0" /><path
   style="fill:none;stroke:#00ffff;stroke-width:0.91799998;stroke-linecap:butt;stroke-linejoin:miter;stroke-dasharray:none"
   id="path5199"
   d="m 950.31213,559.18163 h 2.8107 2.8107 2.8106 2.8107 2.8107 2.8107 2.8107 2.8107 2.8106 2.8107 2.8107 2.8107 2.8107 2.8107 2.8107 2.8106 2.8107 2.81067 2.8107 2.8107 2.8107 2.8107 2.8107 2.8107 2.8107 2.8107 2.8106 2.8107 2.8107 2.8107 2.8107 2.8107 2.8107 2.8107 2.8107 2.8106 2.8107 2.8107 2.8107 2.8107 2.8107 2.8107 2.8106 2.8107 2.8107 2.8107 2.8107 2.8107 2.8107 2.8107 2.8106 2.8107 2.8107 2.8107 2.8107 2.8107 2.8107 2.8107 2.8107 2.8107 2.8107 2.8107 2.8106 2.8107 2.8107 2.8107 2.8107 2.8107 2.8106 2.8107 2.8107 l 2.8107,-0.0427 2.8107,0.0214 2.8107,-0.0214 2.8107,-0.128 2.8106,-0.4483 2.8107,-0.3202 2.8107,-1.302 2.8107,-2.9884 2.8107,-3.65 2.8107,-6.2755 2.8107,-9.0718 2.8107,-12.9139 2.8107,-17.5245 2.8107,-14.4507 2.8107,-15.1979 2.8106,-13.106 2.8107,-9.7121 2.8107,0.6617 2.8107,3.6714 2.8107,11.313 2.8107,15.6888 2.8107,18.2502 2.8107,13.8318 2.8107,15.3045 2.8106,9.4987 2.8107,7.9404 2.8107,4.1624 2.8107,3.586 2.8107,1.238 2.8107,1.4088 2.8107,0.2775 2.8106,0.0854 2.8107,0.1921 h 2.8107 l 2.8107,0.0213 h 2.8107 2.8107 2.8107 2.8107 2.8106 2.8107 2.8107 2.8107 2.8107 2.8107 2.8107 2.8107 2.8107 2.8107 2.8107 2.8107 2.8106 2.8108 2.8108 2.8103 2.8108 2.8108 2.8108 2.8103 2.8108 2.8108 2.8108 2.8108 2.8103 2.8108 2.8108 2.8108 2.8103 2.8108 2.8108 2.8108 2.8108 2.8103 2.8108 2.8108 2.8107 2.8108 2.8103 2.8108 2.8108 2.8108 2.8103 2.8108 2.8108 2.8108 2.8108 2.8103 2.8108 2.8108 2.8108 2.8108 2.8103 2.8108 2.8108 2.8108 2.8103 2.8108 2.8108 2.8108 2.8107 2.8103 2.8108 2.8108 2.8108 2.8108 2.8103 2.8108 2.8108 2.8108 2.8103 2.8108 2.8108 2.8108 2.8108 2.8103 2.8108 2.8108 2.8108 2.8108 2.8103 2.8108 2.8108 2.8107 2.8104 2.8107 2.8108 2.8108 2.8108"
   inkscape:connector-curvature="0" /><path
   style="fill:none;stroke:#ff00ff;stroke-width:0.91799998;stroke-linecap:butt;stroke-linejoin:miter;stroke-dasharray:none"
   id="path5203"
   d="m 950.31213,559.18163 h 2.8107 2.8107 2.8106 2.8107 2.8107 2.8107 2.8107 2.8107 2.8106 2.8107 2.8107 2.8107 2.8107 2.8107 2.8107 2.8106 2.8107 2.81067 2.8107 2.8107 2.8107 2.8107 2.8107 2.8107 2.8107 2.8107 2.8106 2.8107 2.8107 2.8107 2.8107 2.8107 2.8107 2.8107 2.8107 2.8106 2.8107 2.8107 2.8107 2.8107 2.8107 2.8107 2.8106 2.8107 2.8107 2.8107 2.8107 2.8107 2.8107 2.8107 2.8106 2.8107 2.8107 2.8107 2.8107 2.8107 2.8107 2.8107 2.8107 2.8107 2.8107 2.8107 2.8106 2.8107 2.8107 2.8107 2.8107 2.8107 2.8106 2.8107 2.8107 2.8107 2.8107 2.8107 2.8107 2.8106 2.8107 2.8107 l 2.8107,-0.0213 2.8107,0.0213 h 2.8107 2.8107 l 2.8107,-0.064 2.8107,-0.1281 2.8107,-0.5763 2.8107,-0.7044 2.8106,-2.0491 2.8107,-2.903 2.8107,-5.1015 2.8107,-7.9405 2.8107,-11.7826 2.8107,-12.3162 2.8107,-16.9482 2.8107,-18.3356 2.8107,-15.0484 2.8106,-11.4624 2.8107,-6.1688 2.8107,2.6041 2.8107,11.3984 2.8107,14.6642 2.8107,17.7806 2.8107,15.9236 2.8106,15.1125 2.8107,11.6759 2.8107,9.1998 2.8107,5.7632 2.8107,3.2872 2.8107,2.1132 2.8107,1.0886 2.8107,0.5123 2.8106,0.2775 2.8107,0.0853 2.8107,0.0214 2.8107,0.0213 h 2.8107 2.8107 2.8107 2.8107 2.8107 2.8107 2.8107 2.8107 2.8106 2.8108 2.8108 2.8103 2.8108 2.8108 2.8108 2.8103 2.8108 2.8108 2.8108 2.8108 2.8103 2.8108 2.8108 2.8108 2.8103 2.8108 2.8108 2.8108 2.8108 2.8103 2.8108 2.8108 2.8107 2.8108 2.8103 2.8108 2.8108 2.8108 2.8103 2.8108 2.8108 2.8108 2.8108 2.8103 2.8108 2.8108 2.8108 2.8108 2.8103 2.8108 2.8108 2.8108 2.8103 2.8108 2.8108 2.8108 2.8107 2.8103 2.8108 2.8108 2.8108 2.8108 2.8103 2.8108 2.8108 2.8108 2.8103 2.8108 2.8108 2.8108 2.8108 2.8103 2.8108 2.8108 2.8108 2.8108 2.8103 2.8108 2.8108 2.8107 2.8104 2.8107 2.8108 2.8108 2.8108"
   inkscape:connector-curvature="0" /><path
   style="fill:none;stroke:#ffa500;stroke-width:0.91799998;stroke-linecap:butt;stroke-linejoin:miter;stroke-dasharray:none"
   id="path5207"
   d="m 950.31213,559.18163 h 2.8107 2.8107 2.8106 2.8107 2.8107 2.8107 2.8107 2.8107 2.8106 2.8107 2.8107 2.8107 2.8107 2.8107 2.8107 2.8106 2.8107 2.81067 2.8107 2.8107 2.8107 2.8107 2.8107 2.8107 2.8107 2.8107 2.8106 2.8107 2.8107 2.8107 2.8107 2.8107 2.8107 2.8107 2.8107 2.8106 2.8107 2.8107 2.8107 2.8107 2.8107 2.8107 2.8106 2.8107 2.8107 2.8107 2.8107 2.8107 2.8107 2.8107 2.8106 2.8107 2.8107 2.8107 2.8107 2.8107 2.8107 2.8107 2.8107 2.8107 2.8107 2.8107 2.8106 2.8107 2.8107 2.8107 2.8107 2.8107 2.8106 2.8107 2.8107 2.8107 2.8107 2.8107 2.8107 2.8106 2.8107 2.8107 2.8107 2.8107 2.8107 2.8107 2.8107 2.8107 2.8107 2.8107 2.8106 2.8107 2.8107 l 2.8107,-0.0213 2.8107,-0.0427 2.8107,-0.2348 2.8107,-0.2348 2.8107,-0.5763 2.8107,-1.1527 2.8106,-1.7716 2.8107,-4.5466 2.8107,-5.2936 2.8107,-9.6694 2.8107,-13.5756 2.8107,-14.2373 2.8107,-17.4391 2.8106,-19.8512 2.8107,-9.4773 2.8107,-8.8796 2.8107,0.7471 2.8107,3.3298 2.8107,10.6086 2.8107,16.3078 2.8107,16.3932 2.8106,15.6675 2.8107,14.6855 2.8107,11.9321 2.8107,6.4462 2.8107,4.5466 2.8107,2.7322 2.8107,2.1345 2.8107,0.8965 2.8107,0.1708 2.8107,0.2561 2.8107,0.064 2.8107,0.0427 2.8106,0.0427 h 2.8108 2.8108 2.8103 2.8108 2.8108 2.8108 2.8103 2.8108 2.8108 2.8108 2.8108 2.8103 2.8108 2.8108 2.8108 2.8103 2.8108 2.8108 2.8108 2.8108 2.8103 2.8108 2.8108 2.8107 2.8108 2.8103 2.8108 2.8108 2.8108 2.8103 2.8108 2.8108 2.8108 2.8108 2.8103 2.8108 2.8108 2.8108 2.8108 2.8103 2.8108 2.8108 2.8108 2.8103 2.8108 2.8108 2.8108 2.8107 2.8103 2.8108 2.8108 2.8108 2.8108 2.8103 2.8108 2.8108 2.8108 2.8103 2.8108 2.8108 2.8108 2.8108 2.8103 2.8108 2.8108 2.8108 2.8108 2.8103 2.8108 2.8108 2.8107 2.8104 2.8107 2.8108 2.8108 2.8108"
   inkscape:connector-curvature="0" /><path
   style="fill:none;stroke:#7221bc;stroke-width:0.91799998;stroke-linecap:butt;stroke-linejoin:miter;stroke-dasharray:none"
   id="path5211"
   d="m 950.31213,559.18163 h 2.8107 2.8107 2.8106 2.8107 2.8107 2.8107 2.8107 2.8107 2.8106 2.8107 2.8107 2.8107 2.8107 2.8107 2.8107 2.8106 2.8107 2.81067 2.8107 2.8107 2.8107 2.8107 2.8107 2.8107 2.8107 2.8107 2.8106 2.8107 2.8107 2.8107 2.8107 2.8107 2.8107 2.8107 2.8107 2.8106 2.8107 2.8107 2.8107 2.8107 2.8107 2.8107 2.8106 2.8107 2.8107 2.8107 2.8107 2.8107 2.8107 2.8107 2.8106 2.8107 2.8107 2.8107 2.8107 2.8107 2.8107 2.8107 2.8107 2.8107 2.8107 2.8107 2.8106 2.8107 2.8107 2.8107 2.8107 2.8107 2.8106 2.8107 2.8107 2.8107 2.8107 2.8107 2.8107 2.8106 2.8107 2.8107 2.8107 2.8107 2.8107 2.8107 2.8107 2.8107 2.8107 2.8107 2.8106 2.8107 2.8107 2.8107 2.8107 2.8107 2.8107 2.8107 2.8107 2.8106 2.8107 l 2.8107,-0.0427 2.8107,0.0214 2.8107,-0.0214 2.8107,-0.1707 2.8107,-0.2775 2.8106,-0.3842 2.8107,-2.1559 2.8107,-2.6255 2.8107,-5.7632 2.8107,-5.934 2.8107,-10.7794 2.8107,-14.2373 2.8107,-15.2192 2.8106,-18.6771 2.8107,-13.6396 2.8107,-12.5724 2.8107,-5.3577 2.8107,1.0032 2.8107,8.6235 2.8107,11.5905 2.8107,16.8415 2.8107,16.7133 2.8107,14.771 2.8107,13.9171 2.8107,8.3674 2.8106,7.0653 2.8108,3.2658 2.8108,2.967 2.8103,1.4301 2.8108,0.619 2.8108,0.3842 2.8108,0.1708 2.8103,0.064 2.8108,0.0427 h 2.8108 2.8108 2.8108 2.8103 2.8108 2.8108 2.8108 2.8103 2.8108 2.8108 2.8108 2.8108 2.8103 2.8108 2.8108 2.8107 2.8108 2.8103 2.8108 2.8108 2.8108 2.8103 2.8108 2.8108 2.8108 2.8108 2.8103 2.8108 2.8108 2.8108 2.8108 2.8103 2.8108 2.8108 2.8108 2.8103 2.8108 2.8108 2.8108 2.8107 2.8103 2.8108 2.8108 2.8108 2.8108 2.8103 2.8108 2.8108 2.8108 2.8103 2.8108 2.8108 2.8108 2.8108 2.8103 2.8108 2.8108 2.8108 2.8108 2.8103 2.8108 2.8108 2.8107 2.8104 2.8107 2.8108 2.8108 2.8108"
   inkscape:connector-curvature="0" /><path
   style="fill:none;stroke:#670748;stroke-width:0.91799998;stroke-linecap:butt;stroke-linejoin:miter;stroke-dasharray:none"
   id="path5215"
   d="m 950.31213,559.18163 h 2.8107 2.8107 2.8106 2.8107 2.8107 2.8107 2.8107 2.8107 2.8106 2.8107 2.8107 2.8107 2.8107 2.8107 2.8107 2.8106 2.8107 2.81067 2.8107 2.8107 2.8107 2.8107 2.8107 2.8107 2.8107 2.8107 2.8106 2.8107 2.8107 2.8107 2.8107 2.8107 2.8107 2.8107 2.8107 2.8106 2.8107 2.8107 2.8107 2.8107 2.8107 2.8107 2.8106 2.8107 2.8107 2.8107 2.8107 2.8107 2.8107 2.8107 2.8106 2.8107 2.8107 2.8107 2.8107 2.8107 2.8107 2.8107 2.8107 2.8107 2.8107 2.8107 2.8106 2.8107 2.8107 2.8107 2.8107 2.8107 2.8106 2.8107 2.8107 2.8107 2.8107 2.8107 2.8107 2.8106 2.8107 2.8107 2.8107 2.8107 2.8107 2.8107 2.8107 2.8107 2.8107 2.8107 2.8106 2.8107 2.8107 2.8107 2.8107 2.8107 2.8107 2.8107 2.8107 2.8106 2.8107 2.8107 2.8107 2.8107 2.8107 2.8107 2.8106 2.8107 l 2.8107,-0.0213 2.8107,-0.0214 2.8107,0.0427 2.8107,-0.1067 2.8107,-0.0427 2.8107,-0.1494 2.8106,-0.7257 2.8107,-0.9392 2.8107,-2.4761 2.8107,-2.5828 2.8107,-4.8454 2.8107,-9.1144 2.8107,-11.6972 2.8107,-13.8745 2.8107,-14.8776 2.8107,-16.564 2.8107,-13.4048 2.8107,-9.4346 2.8106,-8.2393 2.8108,3.031 2.8108,13.725 2.8103,11.7826 2.8108,15.326 2.8108,13.4262 2.8108,15.1338 2.8103,11.7185 2.8108,10.3738 2.8108,6.6598 2.8108,3.6287 2.8108,1.6009 2.8103,1.4514 2.8108,0.8325 2.8108,0.2135 2.8108,0.1707 2.8103,-0.064 2.8108,0.0427 2.8108,0.0213 h 2.8108 2.8108 2.8103 2.8108 2.8108 2.8107 2.8108 2.8103 2.8108 2.8108 2.8108 2.8103 2.8108 2.8108 2.8108 2.8108 2.8103 2.8108 2.8108 2.8108 2.8108 2.8103 2.8108 2.8108 2.8108 2.8103 2.8108 2.8108 2.8108 2.8107 2.8103 2.8108 2.8108 2.8108 2.8108 2.8103 2.8108 2.8108 2.8108 2.8103 2.8108 2.8108 2.8108 2.8108 2.8103 2.8108 2.8108 2.8108 2.8108 2.8103 2.8108 2.8108 2.8107 2.8104 2.8107 2.8108 2.8108 2.8108"
   inkscape:connector-curvature="0" /><path
   style="fill:none;stroke:#40e0d0;stroke-width:0.91799998;stroke-linecap:butt;stroke-linejoin:miter;stroke-dasharray:none"
   id="path5219"
   d="m 950.31213,558.79743 2.8107,-11.996 2.8107,-87.4944 2.8106,-181.7338 2.8107,-59.2332 2.8107,122.9702 2.8107,136.6953 2.8107,61.944 2.8107,16.3719 2.8106,2.476 2.8107,0.3842 h 2.8107 2.8107 2.8107 2.8107 2.8107 2.8106 2.8107 2.81067 2.8107 2.8107 2.8107 2.8107 2.8107 2.8107 2.8107 2.8107 2.8106 2.8107 2.8107 2.8107 2.8107 2.8107 2.8107 2.8107 2.8107 2.8106 2.8107 2.8107 2.8107 2.8107 2.8107 2.8107 2.8106 2.8107 2.8107 2.8107 2.8107 2.8107 2.8107 2.8107 2.8106 2.8107 2.8107 2.8107 2.8107 2.8107 2.8107 2.8107 2.8107 2.8107 2.8107 2.8107 2.8106 2.8107 2.8107 2.8107 2.8107 2.8107 2.8106 2.8107 2.8107 2.8107 2.8107 2.8107 2.8107 2.8106 2.8107 2.8107 2.8107 2.8107 2.8107 2.8107 2.8107 2.8107 2.8107 2.8107 2.8106 2.8107 2.8107 2.8107 2.8107 2.8107 2.8107 2.8107 2.8107 2.8106 2.8107 2.8107 2.8107 2.8107 2.8107 2.8107 2.8106 2.8107 2.8107 2.8107 2.8107 2.8107 2.8107 2.8107 2.8106 2.8107 2.8107 2.8107 2.8107 2.8107 2.8107 2.8107 2.8107 2.8107 2.8107 2.8107 2.8106 2.8108 2.8108 2.8103 2.8108 2.8108 2.8108 2.8103 2.8108 2.8108 2.8108 2.8108 2.8103 2.8108 2.8108 2.8108 2.8103 2.8108 2.8108 2.8108 2.8108 2.8103 2.8108 2.8108 2.8107 2.8108 2.8103 2.8108 2.8108 2.8108 2.8103 2.8108 2.8108 2.8108 2.8108 2.8103 2.8108 2.8108 2.8108 2.8108 2.8103 2.8108 2.8108 2.8108 2.8103 2.8108 2.8108 2.8108 2.8107 2.8103 2.8108 2.8108 2.8108 2.8108 2.8103 2.8108 2.8108 2.8108 2.8103 2.8108 2.8108 2.8108 2.8108 2.8103 2.8108 2.8108 2.8108 2.8108 2.8103 2.8108 2.8108 2.8107 2.8104 2.8107 2.8108 2.8108 2.8108"
   inkscape:connector-curvature="0" /><path
   style="fill:none;stroke:#008b00;stroke-width:0.91799998;stroke-linecap:butt;stroke-linejoin:miter;stroke-dasharray:none"
   id="path5223"
   d="m 950.31213,559.18163 h 2.8107 2.8107 2.8106 2.8107 2.8107 2.8107 2.8107 2.8107 2.8106 2.8107 2.8107 2.8107 2.8107 2.8107 2.8107 2.8106 2.8107 2.81067 2.8107 2.8107 2.8107 2.8107 2.8107 2.8107 2.8107 2.8107 2.8106 2.8107 2.8107 2.8107 2.8107 2.8107 2.8107 2.8107 2.8107 2.8106 2.8107 2.8107 2.8107 2.8107 2.8107 2.8107 2.8106 2.8107 2.8107 2.8107 2.8107 2.8107 2.8107 2.8107 2.8106 2.8107 2.8107 2.8107 2.8107 2.8107 2.8107 2.8107 2.8107 2.8107 2.8107 2.8107 2.8106 2.8107 2.8107 2.8107 2.8107 2.8107 2.8106 2.8107 2.8107 2.8107 2.8107 2.8107 2.8107 2.8106 2.8107 2.8107 2.8107 2.8107 2.8107 2.8107 2.8107 2.8107 2.8107 2.8107 2.8106 2.8107 2.8107 2.8107 2.8107 2.8107 2.8107 2.8107 2.8107 2.8106 2.8107 2.8107 2.8107 2.8107 2.8107 2.8107 2.8106 2.8107 2.8107 2.8107 2.8107 2.8107 2.8107 2.8107 2.8106 2.8107 2.8107 l 2.8107,-0.0427 2.8107,0.0427 2.8107,-0.0213 2.8107,-0.0427 2.8107,-0.1708 2.8107,-0.1494 2.8107,-0.4055 2.8107,-1.4088 2.8107,-2.348 2.8106,-3.522 2.8108,-5.7419 2.8108,-8.3887 2.8103,-11.9747 2.8108,-13.4902 2.8108,-18.0154 2.8108,-16.1798 2.8103,-14.1305 2.8108,-9.2852 2.8108,-1.8998 2.8108,1.8357 2.8108,10.8007 2.8103,14.9844 2.8108,17.5032 2.8108,16.8627 2.8108,13.8531 2.8103,10.2885 2.8108,8.1966 2.8108,5.0801 2.8108,4.077 2.8108,1.8997 2.8103,1.0246 2.8108,0.3842 2.8108,0.3202 h 2.8107 l 2.8108,0.064 h 2.8103 2.8108 2.8108 2.8108 2.8103 2.8108 2.8108 2.8108 2.8108 2.8103 2.8108 2.8108 2.8108 2.8108 2.8103 2.8108 2.8108 2.8108 2.8103 2.8108 2.8108 2.8108 2.8107 2.8103 2.8108 2.8108 2.8108 2.8108 2.8103 2.8108 2.8108 2.8108 2.8103 2.8108 2.8108 2.8108 2.8108 2.8103 2.8108 2.8108 2.8108 2.8108 2.8103 2.8108 2.8108 2.8107 2.8104 2.8107 2.8108 2.8108 2.8108"
   inkscape:connector-curvature="0" /><path
   style="fill:none;stroke:#000000;stroke-width:0.91799998;stroke-linecap:butt;stroke-linejoin:miter;stroke-dasharray:none"
   id="path5227"
   d="m 950.31213,559.18163 h 2.8107 2.8107 2.8106 2.8107 2.8107 2.8107 2.8107 2.8107 2.8106 2.8107 2.8107 2.8107 2.8107 2.8107 2.8107 2.8106 2.8107 2.81067 2.8107 2.8107 2.8107 2.8107 2.8107 2.8107 2.8107 2.8107 2.8106 2.8107 2.8107 2.8107 2.8107 2.8107 2.8107 2.8107 2.8107 2.8106 2.8107 2.8107 2.8107 2.8107 2.8107 2.8107 2.8106 2.8107 2.8107 2.8107 2.8107 2.8107 2.8107 2.8107 2.8106 2.8107 2.8107 2.8107 2.8107 2.8107 2.8107 2.8107 2.8107 2.8107 2.8107 2.8107 2.8106 2.8107 2.8107 2.8107 2.8107 2.8107 2.8106 2.8107 2.8107 2.8107 2.8107 2.8107 2.8107 2.8106 2.8107 2.8107 2.8107 2.8107 2.8107 2.8107 2.8107 2.8107 2.8107 2.8107 2.8106 2.8107 2.8107 2.8107 2.8107 2.8107 2.8107 2.8107 2.8107 2.8106 2.8107 2.8107 2.8107 2.8107 2.8107 2.8107 2.8106 2.8107 2.8107 2.8107 2.8107 2.8107 2.8107 2.8107 2.8106 2.8107 2.8107 2.8107 2.8107 2.8107 2.8107 2.8107 2.8107 2.8107 2.8107 2.8107 2.8106 2.8108 l 2.8108,-0.0427 2.8103,-0.0427 2.8108,-0.128 2.8108,-0.5123 2.8108,-0.4696 2.8103,-0.9819 2.8108,-2.1132 2.8108,-4.0556 2.8108,-6.5957 2.8108,-9.1784 2.8103,-11.9748 2.8108,-17.2896 2.8108,-17.4391 2.8108,-16.7134 2.8103,-10.5659 2.8108,-11.0142 2.8108,-0.0854 2.8108,7.663 2.8108,11.6332 2.8103,14.1946 2.8108,18.9973 2.8108,12.8712 2.8107,15.4326 2.8108,11.0783 2.8103,5.5284 2.8108,5.8486 2.8108,3.2445 2.8108,1.3874 2.8103,0.8111 2.8108,0.2348 2.8108,0.1495 2.8108,0.0853 2.8108,0.0427 h 2.8103 2.8108 2.8108 2.8108 2.8108 2.8103 2.8108 2.8108 2.8108 2.8103 2.8108 2.8108 2.8108 2.8107 2.8103 2.8108 2.8108 2.8108 2.8108 2.8103 2.8108 2.8108 2.8108 2.8103 2.8108 2.8108 2.8108 2.8108 2.8103 2.8108 2.8108 2.8108 2.8108 2.8103 2.8108 2.8108 2.8107 2.8104 2.8107 2.8108 2.8108 2.8108"
   inkscape:connector-curvature="0" /><path
   style="fill:none;stroke:#000000;stroke-width:0.91799998;stroke-linecap:butt;stroke-linejoin:miter;stroke-dasharray:none"
   id="path5229"
   d="m 950.31213,559.18163 h 2.8107 2.8107 2.8106 2.8107 2.8107 2.8107 2.8107 2.8107 2.8106 2.8107 2.8107 2.8107 2.8107 2.8107 2.8107 2.8106 2.8107 2.81067 2.8107 2.8107 2.8107 2.8107 2.8107 2.8107 2.8107 2.8107 2.8106 2.8107 2.8107 2.8107 2.8107 2.8107 2.8107 2.8107 2.8107 2.8106 2.8107 2.8107 2.8107 2.8107 2.8107 2.8107 2.8106 2.8107 2.8107 2.8107 2.8107 2.8107 2.8107 2.8107 2.8106 2.8107 2.8107 2.8107 2.8107 2.8107 2.8107 2.8107 2.8107 2.8107 2.8107 2.8107 2.8106 2.8107 2.8107 2.8107 2.8107 2.8107 2.8106 2.8107 2.8107 2.8107 2.8107 2.8107 2.8107 2.8106 2.8107 2.8107 2.8107 2.8107 2.8107 2.8107 2.8107 2.8107 2.8107 2.8107 2.8106 2.8107 2.8107 2.8107 2.8107 2.8107 2.8107 2.8107 2.8107 2.8106 2.8107 2.8107 2.8107 2.8107 2.8107 2.8107 2.8106 2.8107 2.8107 2.8107 2.8107 2.8107 2.8107 2.8107 2.8106 2.8107 2.8107 2.8107 2.8107 2.8107 2.8107 2.8107 2.8107 2.8107 2.8107 2.8107 2.8106 2.8108 2.8108 2.8103 2.8108 2.8108 2.8108 2.8103 2.8108 2.8108 l 2.8108,-0.0213 2.8108,-0.0214 2.8103,-0.0853 2.8108,-0.0427 2.8108,-0.6831 2.8108,-0.9605 2.8103,-1.174 2.8108,-2.8389 2.8108,-5.315 2.8108,-7.9618 2.8108,-9.1144 2.8103,-14.9417 2.8108,-17.1617 2.8108,-15.7528 2.8107,-13.2768 2.8108,-14.3227 2.8103,-4.2904 2.8108,0.8752 2.8108,8.3887 2.8108,13.0206 2.8103,15.6675 2.8108,20.3207 2.8108,12.8072 2.8108,12.2308 2.8108,9.9042 2.8103,6.0834 2.8108,3.4793 2.8108,2.8389 2.8108,1.2381 2.8108,0.5336 2.8103,0.2988 2.8108,0.1495 2.8108,0.128 h 2.8108 2.8103 2.8108 2.8108 2.8108 2.8107 2.8103 2.8108 2.8108 2.8108 2.8108 2.8103 2.8108 2.8108 2.8108 2.8103 2.8108 2.8108 2.8108 2.8108 2.8103 2.8108 2.8108 2.8108 2.8108 2.8103 2.8108 2.8108 2.8107 2.8104 2.8107 2.8108 2.8108 2.8108"
   inkscape:connector-curvature="0" /><path
   style="fill:none;stroke:#000000;stroke-width:0.91799998;stroke-linecap:butt;stroke-linejoin:miter;stroke-dasharray:none"
   id="path5231"
   d="m 950.31213,559.18163 h 2.8107 2.8107 2.8106 2.8107 2.8107 2.8107 2.8107 2.8107 2.8106 2.8107 2.8107 2.8107 2.8107 2.8107 2.8107 2.8106 2.8107 2.81067 2.8107 2.8107 2.8107 2.8107 2.8107 2.8107 2.8107 2.8107 2.8106 2.8107 2.8107 2.8107 2.8107 2.8107 2.8107 2.8107 2.8107 2.8106 2.8107 2.8107 2.8107 2.8107 2.8107 2.8107 2.8106 2.8107 2.8107 2.8107 2.8107 2.8107 2.8107 2.8107 2.8106 2.8107 2.8107 2.8107 2.8107 2.8107 2.8107 2.8107 2.8107 2.8107 2.8107 2.8107 2.8106 2.8107 2.8107 2.8107 2.8107 2.8107 2.8106 2.8107 2.8107 2.8107 2.8107 2.8107 2.8107 2.8106 2.8107 2.8107 2.8107 2.8107 2.8107 2.8107 2.8107 2.8107 2.8107 2.8107 2.8106 2.8107 2.8107 2.8107 2.8107 2.8107 2.8107 2.8107 2.8107 2.8106 2.8107 2.8107 2.8107 2.8107 2.8107 2.8107 2.8106 2.8107 2.8107 2.8107 2.8107 2.8107 2.8107 2.8107 2.8106 2.8107 2.8107 2.8107 2.8107 2.8107 2.8107 2.8107 2.8107 2.8107 2.8107 2.8107 2.8106 2.8108 2.8108 2.8103 2.8108 2.8108 2.8108 2.8103 2.8108 2.8108 2.8108 2.8108 2.8103 2.8108 2.8108 2.8108 2.8103 2.8108 2.8108 2.8108 l 2.8108,-0.0854 2.8103,-0.1494 2.8108,-0.1067 2.8108,-0.5123 2.8107,-0.8324 2.8108,-1.8571 2.8103,-2.8176 2.8108,-5.934 2.8108,-9.4132 2.8108,-9.3493 2.8103,-15.3045 2.8108,-14.8777 2.8108,-17.6099 2.8108,-15.6888 2.8108,-9.6267 2.8103,-5.8273 2.8108,3.2018 2.8108,10.0537 2.8108,15.2192 2.8108,15.8382 2.8103,18.549 2.8108,13.1274 2.8108,12.2308 2.8108,7.9832 2.8103,5.9553 2.8108,4.077 2.8108,1.3661 2.8108,1.1526 2.8107,0.8325 2.8103,0.1707 2.8108,0.2135 2.8108,0.0213 h 2.8108 2.8108 2.8103 2.8108 2.8108 2.8108 2.8103 2.8108 2.8108 2.8108 2.8108 2.8103 2.8108 2.8108 2.8108 2.8108 2.8103 2.8108 2.8108 2.8107 2.8104 2.8107 2.8108 2.8108 2.8108"
   inkscape:connector-curvature="0" /><path
   style="fill:none;stroke:#000000;stroke-width:0.91799998;stroke-linecap:butt;stroke-linejoin:miter;stroke-dasharray:none"
   id="path5233"
   d="m 950.31213,559.18163 h 2.8107 2.8107 2.8106 2.8107 2.8107 2.8107 2.8107 2.8107 2.8106 2.8107 2.8107 2.8107 2.8107 2.8107 2.8107 2.8106 2.8107 2.81067 2.8107 2.8107 2.8107 2.8107 2.8107 2.8107 2.8107 2.8107 2.8106 2.8107 2.8107 2.8107 2.8107 2.8107 2.8107 2.8107 2.8107 2.8106 2.8107 2.8107 2.8107 2.8107 2.8107 2.8107 2.8106 2.8107 2.8107 2.8107 2.8107 2.8107 2.8107 2.8107 2.8106 2.8107 2.8107 2.8107 2.8107 2.8107 2.8107 2.8107 2.8107 2.8107 2.8107 2.8107 2.8106 2.8107 2.8107 2.8107 2.8107 2.8107 2.8106 2.8107 2.8107 2.8107 2.8107 2.8107 2.8107 2.8106 2.8107 2.8107 2.8107 2.8107 2.8107 2.8107 2.8107 2.8107 2.8107 2.8107 2.8106 2.8107 2.8107 2.8107 2.8107 2.8107 2.8107 2.8107 2.8107 2.8106 2.8107 2.8107 2.8107 2.8107 2.8107 2.8107 2.8106 2.8107 2.8107 2.8107 2.8107 2.8107 2.8107 2.8107 2.8106 2.8107 2.8107 2.8107 2.8107 2.8107 2.8107 2.8107 2.8107 2.8107 2.8107 2.8107 2.8106 2.8108 2.8108 2.8103 2.8108 2.8108 2.8108 2.8103 2.8108 2.8108 2.8108 2.8108 2.8103 2.8108 2.8108 2.8108 2.8103 2.8108 2.8108 2.8108 2.8108 2.8103 2.8108 2.8108 2.8107 2.8108 2.8103 2.8108 l 2.8108,-0.0427 2.8108,0.0214 2.8103,-0.2775 2.8108,-0.2988 2.8108,-0.6191 2.8108,-1.1953 2.8108,-2.0491 2.8103,-4.2691 2.8108,-7.663 2.8108,-9.4132 2.8108,-10.8007 2.8108,-16.3505 2.8103,-16.6707 2.8108,-16.2651 2.8108,-11.8894 2.8108,-10.0109 2.8103,-0.3842 2.8108,4.1196 2.8108,13.0847 2.8108,16.1797 2.8107,16.1798 2.8103,17.6739 2.8108,13.6609 2.8108,8.9437 2.8108,7.8124 2.8108,4.8881 2.8103,2.1132 2.8108,1.6222 2.8108,1.1313 2.8108,0.5763 2.8103,0.0854 2.8108,0.0213 2.8108,0.0854 2.8108,-0.0427 2.8108,0.0214 2.8103,0.0213 h 2.8108 2.8108 2.8108 2.8108 2.8103 2.8108 2.8108 2.8107 2.8104 2.8107 2.8108 2.8108 2.8108"
   inkscape:connector-curvature="0" /><path
   style="fill:none;stroke:#ff0000;stroke-width:0.91799998;stroke-linecap:butt;stroke-linejoin:miter;stroke-dasharray:none"
   id="path5237"
   d="m 950.31213,559.18163 h 2.8107 2.8107 2.8106 2.8107 2.8107 2.8107 2.8107 2.8107 2.8106 2.8107 2.8107 2.8107 2.8107 2.8107 2.8107 2.8106 2.8107 2.81067 2.8107 2.8107 2.8107 2.8107 2.8107 2.8107 2.8107 2.8107 2.8106 2.8107 2.8107 2.8107 2.8107 2.8107 2.8107 2.8107 2.8107 2.8106 2.8107 2.8107 2.8107 2.8107 2.8107 2.8107 2.8106 2.8107 2.8107 2.8107 2.8107 2.8107 2.8107 2.8107 2.8106 2.8107 2.8107 2.8107 2.8107 2.8107 2.8107 2.8107 2.8107 2.8107 2.8107 2.8107 2.8106 2.8107 2.8107 2.8107 2.8107 2.8107 2.8106 2.8107 2.8107 2.8107 2.8107 2.8107 2.8107 2.8106 2.8107 2.8107 2.8107 2.8107 2.8107 2.8107 2.8107 2.8107 2.8107 2.8107 2.8106 2.8107 2.8107 2.8107 2.8107 2.8107 2.8107 2.8107 2.8107 2.8106 2.8107 2.8107 2.8107 2.8107 2.8107 2.8107 2.8106 2.8107 2.8107 2.8107 2.8107 2.8107 2.8107 2.8107 2.8106 2.8107 2.8107 2.8107 2.8107 2.8107 2.8107 2.8107 2.8107 2.8107 2.8107 2.8107 2.8106 2.8108 2.8108 2.8103 2.8108 2.8108 2.8108 2.8103 2.8108 2.8108 2.8108 2.8108 2.8103 2.8108 2.8108 2.8108 2.8103 2.8108 2.8108 2.8108 2.8108 2.8103 2.8108 2.8108 2.8107 2.8108 2.8103 2.8108 2.8108 2.8108 2.8103 2.8108 2.8108 2.8108 2.8108 2.8103 2.8108 l 2.8108,-0.0427 2.8108,-0.0853 2.8108,-0.1281 2.8103,-0.3202 2.8108,-0.9819 2.8108,-1.302 2.8108,-2.9243 2.8103,-4.4399 2.8108,-7.4068 2.8108,-9.9255 2.8108,-13.7251 2.8107,-15.518 2.8103,-16.4786 2.8108,-17.6952 2.8108,-12.5297 2.8108,-4.269 2.8108,-0.0641 2.8103,8.3887 2.8108,13.7891 2.8108,14.7496 2.8108,16.201 2.8103,16.0944 2.8108,13.4475 2.8108,9.9683 2.8108,5.7846 2.8108,4.8667 2.8103,1.857 2.8108,1.4515 2.8108,0.5763 2.8108,0.491 2.8108,0.0427 2.8103,0.128 h 2.8108 2.8108 2.8107 2.8104 2.8107 2.8108 2.8108 2.8108"
   inkscape:connector-curvature="0" /><path
   style="fill:none;stroke:#00ff00;stroke-width:0.91799998;stroke-linecap:butt;stroke-linejoin:miter;stroke-dasharray:none"
   id="path5241"
   d="m 950.31213,559.18163 h 2.8107 2.8107 2.8106 2.8107 2.8107 2.8107 2.8107 2.8107 2.8106 2.8107 2.8107 2.8107 2.8107 2.8107 2.8107 2.8106 2.8107 2.81067 2.8107 2.8107 2.8107 2.8107 2.8107 2.8107 2.8107 2.8107 2.8106 2.8107 2.8107 2.8107 2.8107 2.8107 2.8107 2.8107 2.8107 2.8106 2.8107 2.8107 2.8107 2.8107 2.8107 2.8107 2.8106 2.8107 2.8107 2.8107 2.8107 2.8107 2.8107 2.8107 2.8106 2.8107 2.8107 2.8107 2.8107 2.8107 2.8107 2.8107 2.8107 2.8107 2.8107 2.8107 2.8106 2.8107 2.8107 2.8107 2.8107 2.8107 2.8106 2.8107 2.8107 2.8107 2.8107 2.8107 2.8107 2.8106 2.8107 2.8107 2.8107 2.8107 2.8107 2.8107 2.8107 2.8107 2.8107 2.8107 2.8106 2.8107 2.8107 2.8107 2.8107 2.8107 2.8107 2.8107 2.8107 2.8106 2.8107 2.8107 2.8107 2.8107 2.8107 2.8107 2.8106 2.8107 2.8107 2.8107 2.8107 2.8107 2.8107 2.8107 2.8106 2.8107 2.8107 2.8107 2.8107 2.8107 2.8107 2.8107 2.8107 2.8107 2.8107 2.8107 2.8106 2.8108 2.8108 2.8103 2.8108 2.8108 2.8108 2.8103 2.8108 2.8108 2.8108 2.8108 2.8103 2.8108 2.8108 2.8108 2.8103 2.8108 2.8108 2.8108 2.8108 2.8103 2.8108 2.8108 2.8107 2.8108 2.8103 2.8108 2.8108 2.8108 2.8103 2.8108 2.8108 2.8108 2.8108 2.8103 2.8108 2.8108 2.8108 2.8108 2.8103 2.8108 2.8108 2.8108 2.8103 2.8108 l 2.8108,-0.064 2.8108,-0.1281 2.8107,-0.1067 2.8103,-0.5123 2.8108,-1.3447 2.8108,-1.7077 2.8108,-2.9029 2.8108,-5.315 2.8103,-8.4954 2.8108,-10.694 2.8108,-14.0879 2.8108,-17.3964 2.8103,-13.7464 2.8108,-17.1403 2.8108,-9.52 2.8108,-5.8272 2.8108,4.3331 2.8103,8.5167 2.8108,15.2406 2.8108,13.3835 2.8108,17.0976 2.8108,15.2405 2.8103,11.932 2.8108,9.1785 2.8108,5.8699 2.8107,4.1197 2.8104,2.0064 2.8107,1.1313 2.8108,0.5977 2.8108,0.1067 2.8108,0.1068"
   inkscape:connector-curvature="0" /><path
   style="fill:none;stroke:#0000ff;stroke-width:0.91799998;stroke-linecap:butt;stroke-linejoin:miter;stroke-dasharray:none"
   id="path5245"
   d="m 950.31213,559.16033 2.8107,-2.0919 2.8107,-27.45 2.8106,-108.4981 2.8107,-141.4339 2.8107,-22.7968 2.8107,107.623 2.8107,114.9017 2.8107,55.3056 2.8106,19.04 2.8107,4.696 2.8107,0.7257 2.8107,-0.0213 2.8107,0.0213 h 2.8107 2.8107 2.8106 2.8107 2.81067 2.8107 2.8107 2.8107 2.8107 2.8107 2.8107 2.8107 2.8107 2.8106 2.8107 2.8107 2.8107 2.8107 2.8107 2.8107 2.8107 2.8107 2.8106 2.8107 2.8107 2.8107 2.8107 2.8107 2.8107 2.8106 2.8107 2.8107 2.8107 2.8107 2.8107 2.8107 2.8107 2.8106 2.8107 2.8107 2.8107 2.8107 2.8107 2.8107 2.8107 2.8107 2.8107 2.8107 2.8107 2.8106 2.8107 2.8107 2.8107 2.8107 2.8107 2.8106 2.8107 2.8107 2.8107 2.8107 2.8107 2.8107 2.8106 2.8107 2.8107 2.8107 2.8107 2.8107 2.8107 2.8107 2.8107 2.8107 2.8107 2.8106 2.8107 2.8107 2.8107 2.8107 2.8107 2.8107 2.8107 2.8107 2.8106 2.8107 2.8107 2.8107 2.8107 2.8107 2.8107 2.8106 2.8107 2.8107 2.8107 2.8107 2.8107 2.8107 2.8107 2.8106 2.8107 2.8107 2.8107 2.8107 2.8107 2.8107 2.8107 2.8107 2.8107 2.8107 2.8107 2.8106 2.8108 2.8108 2.8103 2.8108 2.8108 2.8108 2.8103 2.8108 2.8108 2.8108 2.8108 2.8103 2.8108 2.8108 2.8108 2.8103 2.8108 2.8108 2.8108 2.8108 2.8103 2.8108 2.8108 2.8107 2.8108 2.8103 2.8108 2.8108 2.8108 2.8103 2.8108 2.8108 2.8108 2.8108 2.8103 2.8108 2.8108 2.8108 2.8108 2.8103 2.8108 2.8108 2.8108 2.8103 2.8108 2.8108 2.8108 2.8107 2.8103 2.8108 2.8108 2.8108 2.8108 2.8103 2.8108 2.8108 2.8108 2.8103 2.8108 2.8108 2.8108 2.8108 2.8103 2.8108 2.8108 2.8108 2.8108 2.8103 2.8108 2.8108 2.8107 2.8104 2.8107 2.8108 2.8108 2.8108"
   inkscape:connector-curvature="0" /><path
   style="fill:none;stroke:#ffff00;stroke-width:0.91799998;stroke-linecap:butt;stroke-linejoin:miter;stroke-dasharray:none"
   id="path5249"
   d="m 950.31213,559.18163 2.8107,-0.1494 2.8107,-4.5465 2.8106,-33.0425 2.8107,-96.6515 2.8107,-113.6637 2.8107,-28.1118 2.8107,76.3308 2.8107,99.6398 2.8106,60.2151 2.8107,28.56 2.8107,8.5381 2.8107,2.1132 2.8107,0.4483 2.8107,0.2988 2.8107,0.0213 h 2.8106 2.8107 2.81067 2.8107 2.8107 2.8107 2.8107 2.8107 2.8107 2.8107 2.8107 2.8106 2.8107 2.8107 2.8107 2.8107 2.8107 2.8107 2.8107 2.8107 2.8106 2.8107 2.8107 2.8107 2.8107 2.8107 2.8107 2.8106 2.8107 2.8107 2.8107 2.8107 2.8107 2.8107 2.8107 2.8106 2.8107 2.8107 2.8107 2.8107 2.8107 2.8107 2.8107 2.8107 2.8107 2.8107 2.8107 2.8106 2.8107 2.8107 2.8107 2.8107 2.8107 2.8106 2.8107 2.8107 2.8107 2.8107 2.8107 2.8107 2.8106 2.8107 2.8107 2.8107 2.8107 2.8107 2.8107 2.8107 2.8107 2.8107 2.8107 2.8106 2.8107 2.8107 2.8107 2.8107 2.8107 2.8107 2.8107 2.8107 2.8106 2.8107 2.8107 2.8107 2.8107 2.8107 2.8107 2.8106 2.8107 2.8107 2.8107 2.8107 2.8107 2.8107 2.8107 2.8106 2.8107 2.8107 2.8107 2.8107 2.8107 2.8107 2.8107 2.8107 2.8107 2.8107 2.8107 2.8106 2.8108 2.8108 2.8103 2.8108 2.8108 2.8108 2.8103 2.8108 2.8108 2.8108 2.8108 2.8103 2.8108 2.8108 2.8108 2.8103 2.8108 2.8108 2.8108 2.8108 2.8103 2.8108 2.8108 2.8107 2.8108 2.8103 2.8108 2.8108 2.8108 2.8103 2.8108 2.8108 2.8108 2.8108 2.8103 2.8108 2.8108 2.8108 2.8108 2.8103 2.8108 2.8108 2.8108 2.8103 2.8108 2.8108 2.8108 2.8107 2.8103 2.8108 2.8108 2.8108 2.8108 2.8103 2.8108 2.8108 2.8108 2.8103 2.8108 2.8108 2.8108 2.8108 2.8103 2.8108 2.8108 2.8108 2.8108 2.8103 2.8108 2.8108 2.8107 2.8104 2.8107 2.8108 2.8108 2.8108"
   inkscape:connector-curvature="0" /><path
   style="fill:none;stroke:#bc8f8f;stroke-width:0.91799998;stroke-linecap:butt;stroke-linejoin:miter;stroke-dasharray:none"
   id="path5253"
   d="m 950.31213,559.18163 h 2.8107 l 2.8107,-0.3628 2.8106,-4.8454 2.8107,-23.8427 2.8107,-66.6827 2.8107,-88.7324 2.8107,-47.8988 2.8107,16.4145 2.8106,65.7435 2.8107,65.7008 2.8107,46.4687 2.8107,23.6079 2.8107,9.7335 2.8107,3.6073 2.8107,0.7044 2.8106,0.2988 2.8107,0.0641 h 2.81067 l 2.8107,0.0213 h 2.8107 2.8107 2.8107 2.8107 2.8107 2.8107 2.8107 2.8106 2.8107 2.8107 2.8107 2.8107 2.8107 2.8107 2.8107 2.8107 2.8106 2.8107 2.8107 2.8107 2.8107 2.8107 2.8107 2.8106 2.8107 2.8107 2.8107 2.8107 2.8107 2.8107 2.8107 2.8106 2.8107 2.8107 2.8107 2.8107 2.8107 2.8107 2.8107 2.8107 2.8107 2.8107 2.8107 2.8106 2.8107 2.8107 2.8107 2.8107 2.8107 2.8106 2.8107 2.8107 2.8107 2.8107 2.8107 2.8107 2.8106 2.8107 2.8107 2.8107 2.8107 2.8107 2.8107 2.8107 2.8107 2.8107 2.8107 2.8106 2.8107 2.8107 2.8107 2.8107 2.8107 2.8107 2.8107 2.8107 2.8106 2.8107 2.8107 2.8107 2.8107 2.8107 2.8107 2.8106 2.8107 2.8107 2.8107 2.8107 2.8107 2.8107 2.8107 2.8106 2.8107 2.8107 2.8107 2.8107 2.8107 2.8107 2.8107 2.8107 2.8107 2.8107 2.8107 2.8106 2.8108 2.8108 2.8103 2.8108 2.8108 2.8108 2.8103 2.8108 2.8108 2.8108 2.8108 2.8103 2.8108 2.8108 2.8108 2.8103 2.8108 2.8108 2.8108 2.8108 2.8103 2.8108 2.8108 2.8107 2.8108 2.8103 2.8108 2.8108 2.8108 2.8103 2.8108 2.8108 2.8108 2.8108 2.8103 2.8108 2.8108 2.8108 2.8108 2.8103 2.8108 2.8108 2.8108 2.8103 2.8108 2.8108 2.8108 2.8107 2.8103 2.8108 2.8108 2.8108 2.8108 2.8103 2.8108 2.8108 2.8108 2.8103 2.8108 2.8108 2.8108 2.8108 2.8103 2.8108 2.8108 2.8108 2.8108 2.8103 2.8108 2.8108 2.8107 2.8104 2.8107 2.8108 2.8108 2.8108"
   inkscape:connector-curvature="0" /><path
   style="fill:none;stroke:#dcdcdc;stroke-width:0.91799998;stroke-linecap:butt;stroke-linejoin:miter;stroke-dasharray:none"
   id="path5257"
   d="m 950.31213,559.18163 h 2.8107 2.8107 l 2.8106,-0.2134 2.8107,-1.8784 2.8107,-10.075 2.8107,-32.2527 2.8107,-51.058 2.8107,-61.0902 2.8106,-32.4021 2.8107,3.8208 2.8107,36.5858 2.8107,46.7675 2.8107,40.3213 2.8107,28.6667 2.8107,17.2684 2.8106,8.474 2.8107,4.2264 2.81067,1.7717 2.8107,0.8538 2.8107,0.0854 2.8107,0.1067 2.8107,-0.0214 2.8107,0.0427 h 2.8107 2.8107 2.8107 2.8106 2.8107 2.8107 2.8107 2.8107 2.8107 2.8107 2.8107 2.8107 2.8106 2.8107 2.8107 2.8107 2.8107 2.8107 2.8107 2.8106 2.8107 2.8107 2.8107 2.8107 2.8107 2.8107 2.8107 2.8106 2.8107 2.8107 2.8107 2.8107 2.8107 2.8107 2.8107 2.8107 2.8107 2.8107 2.8107 2.8106 2.8107 2.8107 2.8107 2.8107 2.8107 2.8106 2.8107 2.8107 2.8107 2.8107 2.8107 2.8107 2.8106 2.8107 2.8107 2.8107 2.8107 2.8107 2.8107 2.8107 2.8107 2.8107 2.8107 2.8106 2.8107 2.8107 2.8107 2.8107 2.8107 2.8107 2.8107 2.8107 2.8106 2.8107 2.8107 2.8107 2.8107 2.8107 2.8107 2.8106 2.8107 2.8107 2.8107 2.8107 2.8107 2.8107 2.8107 2.8106 2.8107 2.8107 2.8107 2.8107 2.8107 2.8107 2.8107 2.8107 2.8107 2.8107 2.8107 2.8106 2.8108 2.8108 2.8103 2.8108 2.8108 2.8108 2.8103 2.8108 2.8108 2.8108 2.8108 2.8103 2.8108 2.8108 2.8108 2.8103 2.8108 2.8108 2.8108 2.8108 2.8103 2.8108 2.8108 2.8107 2.8108 2.8103 2.8108 2.8108 2.8108 2.8103 2.8108 2.8108 2.8108 2.8108 2.8103 2.8108 2.8108 2.8108 2.8108 2.8103 2.8108 2.8108 2.8108 2.8103 2.8108 2.8108 2.8108 2.8107 2.8103 2.8108 2.8108 2.8108 2.8108 2.8103 2.8108 2.8108 2.8108 2.8103 2.8108 2.8108 2.8108 2.8108 2.8103 2.8108 2.8108 2.8108 2.8108 2.8103 2.8108 2.8108 2.8107 2.8104 2.8107 2.8108 2.8108 2.8108"
   inkscape:connector-curvature="0" /><path
   style="fill:none;stroke:#9400d3;stroke-width:0.91799998;stroke-linecap:butt;stroke-linejoin:miter;stroke-dasharray:none"
   id="path5261"
   d="m 950.31213,559.18163 h 2.8107 2.8107 2.8106 l 2.8107,-0.0213 2.8107,-0.2348 2.8107,-1.9424 2.8107,-5.7419 2.8107,-14.3867 2.8106,-24.91 2.8107,-33.5335 2.8107,-36.8206 2.8107,-23.4158 2.8107,-8.8796 2.8107,12.0814 2.8107,22.626 2.8106,27.7703 2.8107,26.1266 2.81067,21.9643 2.8107,16.2865 2.8107,10.4378 2.8107,6.7238 2.8107,3.0097 2.8107,1.5795 2.8107,0.7898 2.8107,0.3202 2.8107,0.1067 2.8106,0.0427 2.8107,0.0213 h 2.8107 2.8107 2.8107 2.8107 2.8107 2.8107 2.8107 2.8106 2.8107 2.8107 2.8107 2.8107 2.8107 2.8107 2.8106 2.8107 2.8107 2.8107 2.8107 2.8107 2.8107 2.8107 2.8106 2.8107 2.8107 2.8107 2.8107 2.8107 2.8107 2.8107 2.8107 2.8107 2.8107 2.8107 2.8106 2.8107 2.8107 2.8107 2.8107 2.8107 2.8106 2.8107 2.8107 2.8107 2.8107 2.8107 2.8107 2.8106 2.8107 2.8107 2.8107 2.8107 2.8107 2.8107 2.8107 2.8107 2.8107 2.8107 2.8106 2.8107 2.8107 2.8107 2.8107 2.8107 2.8107 2.8107 2.8107 2.8106 2.8107 2.8107 2.8107 2.8107 2.8107 2.8107 2.8106 2.8107 2.8107 2.8107 2.8107 2.8107 2.8107 2.8107 2.8106 2.8107 2.8107 2.8107 2.8107 2.8107 2.8107 2.8107 2.8107 2.8107 2.8107 2.8107 2.8106 2.8108 2.8108 2.8103 2.8108 2.8108 2.8108 2.8103 2.8108 2.8108 2.8108 2.8108 2.8103 2.8108 2.8108 2.8108 2.8103 2.8108 2.8108 2.8108 2.8108 2.8103 2.8108 2.8108 2.8107 2.8108 2.8103 2.8108 2.8108 2.8108 2.8103 2.8108 2.8108 2.8108 2.8108 2.8103 2.8108 2.8108 2.8108 2.8108 2.8103 2.8108 2.8108 2.8108 2.8103 2.8108 2.8108 2.8108 2.8107 2.8103 2.8108 2.8108 2.8108 2.8108 2.8103 2.8108 2.8108 2.8108 2.8103 2.8108 2.8108 2.8108 2.8108 2.8103 2.8108 2.8108 2.8108 2.8108 2.8103 2.8108 2.8108 2.8107 2.8104 2.8107 2.8108 2.8108 2.8108"
   inkscape:connector-curvature="0" /><path
   style="fill:none;stroke:#00ffff;stroke-width:0.91799998;stroke-linecap:butt;stroke-linejoin:miter;stroke-dasharray:none"
   id="path5265"
   d="m 950.31213,559.18163 h 2.8107 2.8107 2.8106 2.8107 2.8107 l 2.8107,-0.0213 h 2.8107 l 2.8107,-0.2348 2.8106,-0.4696 2.8107,-1.729 2.8107,-3.1164 2.8107,-6.9159 2.8107,-11.3984 2.8107,-16.0943 2.8107,-20.1926 2.8106,-21.1959 2.8107,-19.7658 2.81067,-10.7153 2.8107,-7.3428 2.8107,4.4398 2.8107,9.8829 2.8107,22.6047 2.8107,15.1124 2.8107,19.6164 2.8107,14.6001 2.8107,11.3557 2.8106,9.1358 2.8107,5.3363 2.8107,3.5434 2.8107,1.4941 2.8107,1.3021 2.8107,0.4909 2.8107,0.2135 2.8107,0.0213 h 2.8107 l 2.8106,0.0427 2.8107,-0.0213 2.8107,0.0213 h 2.8107 2.8107 2.8107 2.8107 2.8106 2.8107 2.8107 2.8107 2.8107 2.8107 2.8107 2.8107 2.8106 2.8107 2.8107 2.8107 2.8107 2.8107 2.8107 2.8107 2.8107 2.8107 2.8107 2.8107 2.8106 2.8107 2.8107 2.8107 2.8107 2.8107 2.8106 2.8107 2.8107 2.8107 2.8107 2.8107 2.8107 2.8106 2.8107 2.8107 2.8107 2.8107 2.8107 2.8107 2.8107 2.8107 2.8107 2.8107 2.8106 2.8107 2.8107 2.8107 2.8107 2.8107 2.8107 2.8107 2.8107 2.8106 2.8107 2.8107 2.8107 2.8107 2.8107 2.8107 2.8106 2.8107 2.8107 2.8107 2.8107 2.8107 2.8107 2.8107 2.8106 2.8107 2.8107 2.8107 2.8107 2.8107 2.8107 2.8107 2.8107 2.8107 2.8107 2.8107 2.8106 2.8108 2.8108 2.8103 2.8108 2.8108 2.8108 2.8103 2.8108 2.8108 2.8108 2.8108 2.8103 2.8108 2.8108 2.8108 2.8103 2.8108 2.8108 2.8108 2.8108 2.8103 2.8108 2.8108 2.8107 2.8108 2.8103 2.8108 2.8108 2.8108 2.8103 2.8108 2.8108 2.8108 2.8108 2.8103 2.8108 2.8108 2.8108 2.8108 2.8103 2.8108 2.8108 2.8108 2.8103 2.8108 2.8108 2.8108 2.8107 2.8103 2.8108 2.8108 2.8108 2.8108 2.8103 2.8108 2.8108 2.8108 2.8103 2.8108 2.8108 2.8108 2.8108 2.8103 2.8108 2.8108 2.8108 2.8108 2.8103 2.8108 2.8108 2.8107 2.8104 2.8107 2.8108 2.8108 2.8108"
   inkscape:connector-curvature="0" /><path
   style="fill:none;stroke:#ff00ff;stroke-width:0.91799998;stroke-linecap:butt;stroke-linejoin:miter;stroke-dasharray:none"
   id="path5269"
   d="m 950.31213,559.18163 h 2.8107 2.8107 2.8106 2.8107 2.8107 2.8107 2.8107 2.8107 2.8106 2.8107 2.8107 2.8107 2.8107 l 2.8107,-0.1494 2.8107,-0.2775 2.8106,-0.5123 2.8107,-1.4728 2.81067,-2.476 2.8107,-4.6533 2.8107,-7.1293 2.8107,-9.9256 2.8107,-13.5116 2.8107,-13.3408 2.8107,-20.4061 2.8107,-15.5607 2.8107,-13.1487 2.8106,-5.6352 2.8107,-1.5795 2.8107,9.7334 2.8107,13.7464 2.8107,13.106 2.8107,17.3537 2.8107,16.7774 2.8107,11.5692 2.8107,11.1209 2.8106,6.5743 2.8107,4.5466 2.8107,2.9029 2.8107,1.2381 2.8107,0.5976 2.8107,0.3202 2.8107,0.1067 2.8106,0.0641 2.8107,0.0213 h 2.8107 2.8107 2.8107 2.8107 2.8107 2.8107 2.8106 2.8107 2.8107 2.8107 2.8107 2.8107 2.8107 2.8107 2.8107 2.8107 2.8107 2.8107 2.8106 2.8107 2.8107 2.8107 2.8107 2.8107 2.8106 2.8107 2.8107 2.8107 2.8107 2.8107 2.8107 2.8106 2.8107 2.8107 2.8107 2.8107 2.8107 2.8107 2.8107 2.8107 2.8107 2.8107 2.8106 2.8107 2.8107 2.8107 2.8107 2.8107 2.8107 2.8107 2.8107 2.8106 2.8107 2.8107 2.8107 2.8107 2.8107 2.8107 2.8106 2.8107 2.8107 2.8107 2.8107 2.8107 2.8107 2.8107 2.8106 2.8107 2.8107 2.8107 2.8107 2.8107 2.8107 2.8107 2.8107 2.8107 2.8107 2.8107 2.8106 2.8108 2.8108 2.8103 2.8108 2.8108 2.8108 2.8103 2.8108 2.8108 2.8108 2.8108 2.8103 2.8108 2.8108 2.8108 2.8103 2.8108 2.8108 2.8108 2.8108 2.8103 2.8108 2.8108 2.8107 2.8108 2.8103 2.8108 2.8108 2.8108 2.8103 2.8108 2.8108 2.8108 2.8108 2.8103 2.8108 2.8108 2.8108 2.8108 2.8103 2.8108 2.8108 2.8108 2.8103 2.8108 2.8108 2.8108 2.8107 2.8103 2.8108 2.8108 2.8108 2.8108 2.8103 2.8108 2.8108 2.8108 2.8103 2.8108 2.8108 2.8108 2.8108 2.8103 2.8108 2.8108 2.8108 2.8108 2.8103 2.8108 2.8108 2.8107 2.8104 2.8107 2.8108 2.8108 2.8108"
   inkscape:connector-curvature="0" /><path
   style="fill:none;stroke:#ffa500;stroke-width:0.91799998;stroke-linecap:butt;stroke-linejoin:miter;stroke-dasharray:none"
   id="path5273"
   d="m 950.31213,559.18163 h 2.8107 2.8107 2.8106 2.8107 2.8107 2.8107 2.8107 2.8107 2.8106 2.8107 2.8107 2.8107 2.8107 2.8107 2.8107 2.8106 2.8107 2.81067 2.8107 2.8107 l 2.8107,-0.0213 2.8107,-0.2562 2.8107,-0.0853 2.8107,-0.4483 2.8107,-1.0246 2.8107,-1.5795 2.8106,-3.1378 2.8107,-6.4463 2.8107,-7.0652 2.8107,-10.8648 2.8107,-13.0847 2.8107,-15.582 2.8107,-20.0006 2.8107,-17.2256 2.8107,-8.9437 2.8106,-5.5284 2.8107,6.5957 2.8107,5.5711 2.8107,14.5788 2.8107,21.4094 2.8107,15.0484 2.8107,13.9598 2.8106,12.9139 2.8107,8.4314 2.8107,5.4004 2.8107,3.8848 2.8107,1.4088 2.8107,1.2807 2.8107,0.2135 2.8107,0.5122 2.8106,0.0641 h 2.8107 l 2.8107,0.0213 h 2.8107 2.8107 2.8107 2.8107 2.8107 2.8107 2.8107 2.8107 2.8107 2.8106 2.8107 2.8107 2.8107 2.8107 2.8107 2.8106 2.8107 2.8107 2.8107 2.8107 2.8107 2.8107 2.8106 2.8107 2.8107 2.8107 2.8107 2.8107 2.8107 2.8107 2.8107 2.8107 2.8107 2.8106 2.8107 2.8107 2.8107 2.8107 2.8107 2.8107 2.8107 2.8107 2.8106 2.8107 2.8107 2.8107 2.8107 2.8107 2.8107 2.8106 2.8107 2.8107 2.8107 2.8107 2.8107 2.8107 2.8107 2.8106 2.8107 2.8107 2.8107 2.8107 2.8107 2.8107 2.8107 2.8107 2.8107 2.8107 2.8107 2.8106 2.8108 2.8108 2.8103 2.8108 2.8108 2.8108 2.8103 2.8108 2.8108 2.8108 2.8108 2.8103 2.8108 2.8108 2.8108 2.8103 2.8108 2.8108 2.8108 2.8108 2.8103 2.8108 2.8108 2.8107 2.8108 2.8103 2.8108 2.8108 2.8108 2.8103 2.8108 2.8108 2.8108 2.8108 2.8103 2.8108 2.8108 2.8108 2.8108 2.8103 2.8108 2.8108 2.8108 2.8103 2.8108 2.8108 2.8108 2.8107 2.8103 2.8108 2.8108 2.8108 2.8108 2.8103 2.8108 2.8108 2.8108 2.8103 2.8108 2.8108 2.8108 2.8108 2.8103 2.8108 2.8108 2.8108 2.8108 2.8103 2.8108 2.8108 2.8107 2.8104 2.8107 2.8108 2.8108 2.8108"
   inkscape:connector-curvature="0" /><path
   style="fill:none;stroke:#000000;stroke-width:0.91799998;stroke-linecap:butt;stroke-linejoin:miter;stroke-dasharray:none"
   id="path5277"
   d="M 928.88553,560.67583 H 1540.8855"
   inkscape:connector-curvature="0" /><path
   style="fill:none;stroke:#000000;stroke-width:0.91799998;stroke-linecap:butt;stroke-linejoin:miter;stroke-dasharray:none"
   id="path5281"
   d="m 928.88553,560.67583 v -6.12"
   inkscape:connector-curvature="0" /><path
   style="fill:none;stroke:#000000;stroke-width:0.91799998;stroke-linecap:butt;stroke-linejoin:miter;stroke-dasharray:none"
   id="path5283"
   d="m 928.88553,132.27583 v 6.12"
   inkscape:connector-curvature="0" /><path
   style="fill:none;stroke:#000000;stroke-width:0.91799998;stroke-linecap:butt;stroke-linejoin:miter;stroke-dasharray:none"
   id="path5285"
   d="m 1173.6855,560.67583 v -6.12"
   inkscape:connector-curvature="0" /><path
   style="fill:none;stroke:#000000;stroke-width:0.91799998;stroke-linecap:butt;stroke-linejoin:miter;stroke-dasharray:none"
   id="path5289"
   d="m 1418.4855,560.67583 v -6.12"
   inkscape:connector-curvature="0" /><path
   style="fill:none;stroke:#000000;stroke-width:0.91799998;stroke-linecap:butt;stroke-linejoin:miter;stroke-dasharray:none"
   id="path5293"
   d="m 1051.2855,560.67583 v -12.24"
   inkscape:connector-curvature="0" /><path
   style="fill:none;stroke:#000000;stroke-width:0.91799998;stroke-linecap:butt;stroke-linejoin:miter;stroke-dasharray:none"
   id="path5297"
   d="m 1296.0855,560.67583 v -12.24"
   inkscape:connector-curvature="0" /><path
   style="fill:none;stroke:#000000;stroke-width:0.91799998;stroke-linecap:butt;stroke-linejoin:miter;stroke-dasharray:none"
   id="path5301"
   d="m 1540.8855,560.67583 v -12.24"
   inkscape:connector-curvature="0" /><text
   id="text5307"
   style="font-style:normal;font-weight:normal;font-size:17.13599968px;font-family:Times, 'Nimbus Roman No9 L';fill:#000000;fill-rule:nonzero;stroke-width:0.028"
   x="1034.3175"
   y="584.43982"><tspan
     style="font-size:28px"
     id="tspan1356">0.5</tspan></text>


<text
   id="text5309"
   style="font-style:normal;font-weight:normal;font-size:17.13599968px;font-family:Times, 'Nimbus Roman No9 L';fill:#000000;fill-rule:nonzero;stroke-width:0.028"
   x="1289.0155"
   y="584.46783"><tspan
     style="font-size:28px"
     id="tspan1358">1</tspan></text>


<text
   id="text5311"
   style="font-style:normal;font-weight:normal;font-size:17.13599968px;font-family:Times, 'Nimbus Roman No9 L';fill:#000000;fill-rule:nonzero;stroke-width:0.028"
   x="1522.6995"
   y="584.43982"><tspan
     style="font-size:28px"
     id="tspan1360">1.5</tspan></text>


<path
   style="fill:none;stroke:#000000;stroke-width:0.91799998;stroke-linecap:butt;stroke-linejoin:miter;stroke-dasharray:none"
   id="path5319"
   d="m 928.88553,560.67583 v -428.4"
   inkscape:connector-curvature="0" /><path
   style="fill:none;stroke:#000000;stroke-width:0.91799998;stroke-linecap:butt;stroke-linejoin:miter;stroke-dasharray:none"
   id="path5323"
   d="m 928.88553,505.81843 h 6.12"
   inkscape:connector-curvature="0" /><path
   style="fill:none;stroke:#000000;stroke-width:0.91799998;stroke-linecap:butt;stroke-linejoin:miter;stroke-dasharray:none"
   id="path5327"
   d="m 928.88553,399.09193 h 6.12"
   inkscape:connector-curvature="0" /><path
   style="fill:none;stroke:#000000;stroke-width:0.91799998;stroke-linecap:butt;stroke-linejoin:miter;stroke-dasharray:none"
   id="path5331"
   d="m 928.88553,292.36553 h 6.12"
   inkscape:connector-curvature="0" /><path
   style="fill:none;stroke:#000000;stroke-width:0.91799998;stroke-linecap:butt;stroke-linejoin:miter;stroke-dasharray:none"
   id="path5335"
   d="m 928.88553,185.63903 h 6.12"
   inkscape:connector-curvature="0" /><path
   style="fill:none;stroke:#000000;stroke-width:0.91799998;stroke-linecap:butt;stroke-linejoin:miter;stroke-dasharray:none"
   id="path5339"
   d="m 928.88553,559.18163 h 12.24"
   inkscape:connector-curvature="0" /><path
   style="fill:none;stroke:#000000;stroke-width:0.91799998;stroke-linecap:butt;stroke-linejoin:miter;stroke-dasharray:none"
   id="path5341"
   d="m 1540.8855,559.18163 h -12.24"
   inkscape:connector-curvature="0" /><path
   style="fill:none;stroke:#000000;stroke-width:0.91799998;stroke-linecap:butt;stroke-linejoin:miter;stroke-dasharray:none"
   id="path5343"
   d="m 928.88553,452.45523 h 12.24"
   inkscape:connector-curvature="0" /><path
   style="fill:none;stroke:#000000;stroke-width:0.91799998;stroke-linecap:butt;stroke-linejoin:miter;stroke-dasharray:none"
   id="path5347"
   d="m 928.88553,345.72873 h 12.24"
   inkscape:connector-curvature="0" /><path
   style="fill:none;stroke:#000000;stroke-width:0.91799998;stroke-linecap:butt;stroke-linejoin:miter;stroke-dasharray:none"
   id="path5351"
   d="m 928.88553,239.00233 h 12.24"
   inkscape:connector-curvature="0" /><path
   style="fill:none;stroke:#000000;stroke-width:0.91799998;stroke-linecap:butt;stroke-linejoin:miter;stroke-dasharray:none"
   id="path5355"
   d="m 928.88553,132.27583 h 12.24"
   inkscape:connector-curvature="0" /><text
   id="text5361"
   style="font-style:normal;font-weight:normal;font-size:17.13599968px;font-family:Times, 'Nimbus Roman No9 L';fill:#000000;fill-rule:nonzero;stroke-width:0.028"
   x="910.59851"
   y="569.94385"><tspan
     style="font-size:28px"
     id="tspan1418">0</tspan></text>


<text
   id="text5363"
   style="font-style:normal;font-weight:normal;font-size:17.13599968px;font-family:Times, 'Nimbus Roman No9 L';fill:#000000;fill-rule:nonzero;stroke-width:0.028"
   x="868.59851"
   y="461.89124"><tspan
     style="font-size:28px"
     id="tspan1420">5000</tspan></text>


<text
   id="text5365"
   style="font-style:normal;font-weight:normal;font-size:17.13599968px;font-family:Times, 'Nimbus Roman No9 L';fill:#000000;fill-rule:nonzero;stroke-width:0.028"
   x="854.59851"
   y="354.99673"><tspan
     style="font-size:28px"
     id="tspan1422">10000</tspan></text>


<text
   id="text5367"
   style="font-style:normal;font-weight:normal;font-size:17.13599968px;font-family:Times, 'Nimbus Roman No9 L';fill:#000000;fill-rule:nonzero;stroke-width:0.028"
   x="854.59851"
   y="248.43832"><tspan
     style="font-size:28px"
     id="tspan1424">15000</tspan></text>


<text
   id="text5369"
   style="font-style:normal;font-weight:normal;font-size:17.13599968px;font-family:Times, 'Nimbus Roman No9 L';fill:#000000;fill-rule:nonzero;stroke-width:0.028"
   x="854.59851"
   y="141.54382"><tspan
     style="font-size:28px"
     id="tspan1426">20000</tspan></text>



<text
   id="text5379"
   style="font-style:normal;font-weight:normal;font-size:25.70400047px;font-family:Times, 'Nimbus Roman No9 L';fill:#000000;fill-rule:nonzero;stroke-width:0.042"
   x="1067.9971"
   y="74.555832"><tspan
     style="font-size:40px"
     id="tspan1442">Umbrella histograms</tspan></text>


<text
   id="text5381"
   style="font-style:normal;font-weight:normal;font-size:17.13599968px;font-family:Times, 'Nimbus Roman No9 L';fill:#000000;fill-rule:nonzero;stroke-width:0.028"
   x="946.086"
   y="116.03583"><tspan
     style="font-size:32px"
     id="tspan1444">Overlap between different sampling windows</tspan></text>


<flowRoot
   xml:space="preserve"
   id="flowRoot1322"
   style="font-style:normal;font-weight:normal;font-size:25px;line-height:25px;font-family:sans-serif;letter-spacing:0px;word-spacing:0px;fill:#000000;fill-opacity:1;stroke:none;stroke-width:1px;stroke-linecap:butt;stroke-linejoin:miter;stroke-opacity:1"
   transform="matrix(0.75000002,0,0,0.75000002,0,-10.5)"><flowRegion
     id="flowRegion1324"><rect
       id="rect1326"
       width="259.51059"
       height="62.31815"
       x="517.68579"
       y="813.13574" /></flowRegion><flowPara
     id="flowPara1330"
     style="font-size:37.33333206px"> (nm)</flowPara></flowRoot><flowRoot
   transform="matrix(0.75000002,0,0,0.75000002,801.54517,-10.5)"
   xml:space="preserve"
   id="flowRoot1322-7"
   style="font-style:normal;font-weight:normal;font-size:25px;line-height:25px;font-family:sans-serif;letter-spacing:0px;word-spacing:0px;fill:#000000;fill-opacity:1;stroke:none;stroke-width:1px;stroke-linecap:butt;stroke-linejoin:miter;stroke-opacity:1"><flowRegion
     id="flowRegion1324-0"><rect
       id="rect1326-4"
       width="259.51059"
       height="62.31815"
       x="517.68579"
       y="813.13574" /></flowRegion><flowPara
     id="flowPara1330-8"
     style="font-size:37.33333206px"> (nm)</flowPara></flowRoot><text
   id="text5307-0"
   style="font-style:normal;font-weight:normal;font-size:17.13599968px;font-family:Times, 'Nimbus Roman No9 L';fill:#000000;fill-rule:nonzero;stroke-width:0.028"
   x="234.1451"
   y="584.43982"><tspan
     style="font-size:28px;stroke-width:0.028"
     id="tspan1356-4">0.5</tspan></text>


<text
   id="text5309-0"
   style="font-style:normal;font-weight:normal;font-size:17.13599968px;font-family:Times, 'Nimbus Roman No9 L';fill:#000000;fill-rule:nonzero;stroke-width:0.028"
   x="488.84311"
   y="584.46783"><tspan
     style="font-size:28px;stroke-width:0.028"
     id="tspan1358-9">1</tspan></text>


<text
   id="text5311-1"
   style="font-style:normal;font-weight:normal;font-size:17.13599968px;font-family:Times, 'Nimbus Roman No9 L';fill:#000000;fill-rule:nonzero;stroke-width:0.028"
   x="722.5271"
   y="584.43982"><tspan
     style="font-size:28px;stroke-width:0.028"
     id="tspan1360-9">1.5</tspan></text>


<flowRoot
   xml:space="preserve"
   id="flowRoot1408"
   style="font-style:normal;font-weight:normal;font-size:25px;line-height:25px;font-family:sans-serif;letter-spacing:0px;word-spacing:0px;fill:#000000;fill-opacity:1;stroke:none;stroke-width:1px;stroke-linecap:butt;stroke-linejoin:miter;stroke-opacity:1"
   transform="matrix(0,-0.75000002,0.75000002,0,-217.21583,235.93335)"><flowRegion
     id="flowRegion1410"><rect
       id="rect1412"
       width="238.58368"
       height="149.823"
       x="-254.32138"
       y="368.47821" /></flowRegion><flowPara
     id="flowPara1414"
     style="font-size:37.33333206px">E (kJ mol)</flowPara></flowRoot><flowRoot
   xml:space="preserve"
   id="flowRoot951"
   style="font-style:normal;font-weight:normal;font-size:25px;line-height:25px;font-family:sans-serif;letter-spacing:0px;word-spacing:0px;fill:#000000;fill-opacity:1;stroke:none;stroke-width:1px;stroke-linecap:butt;stroke-linejoin:miter;stroke-opacity:1"
   transform="matrix(0,-0.75000002,0.75000002,0,193.59111,848.55543)"><flowRegion
     id="flowRegion953"><rect
       id="rect955"
       width="806.67627"
       height="152.11609"
       x="616.14703"
       y="848.09637" /></flowRegion><flowPara
     id="flowPara957"
     style="font-size:37.33333206px">count</flowPara></flowRoot></svg>