<?xml version="1.0" encoding="ISO-8859-1"?>
<!DOCTYPE svg PUBLIC "-//W3C//DTD SVG 1.0//EN" "http://www.w3.org/TR/2001/REC-SVG-20010904/DTD/svg10.dtd">
<!-- generated by Grace-5.1.25 -->
<svg xml:space="preserve" width="11.0000in" height="8.5000in" viewBox="0.0000 0.0000 792.0000 612.0000">
 <g transform="translate(0,612.0000) scale(1,-1)">
  <g style="fill:#FFFFFF; fill-rule:nonzero">
   <path  d="M0.0000,0.0000L0.0000,612.0000L792.0000,612.0000L792.0000,0.0000z"/>
  </g>
  <g style="fill:none; stroke:#000000; stroke-width:  1.8360; stroke-linecap:butt; stroke-linejoin:miter; stroke-dasharray:none">
   <path d="M113.2266,520.2000L116.0373,433.2098L118.8480,365.4864L121.6586,312.7243L124.4693,272.2278L127.2800,241.0337L130.0907,217.2427L132.9014,199.4461L135.7121,185.5381L138.5227,174.9645
            L141.3334,166.8441L144.1441,160.6494L146.9548,156.0159L149.7655,152.3215L152.5762,149.7781L155.3869,147.7053L158.1975,146.1137L161.0082,144.7874L163.8189,144.1387L166.6296,143.2861
            L169.4403,142.8260L172.2510,142.3393L175.0617,142.6194L177.8724,142.2171L180.6831,141.7207L183.4938,141.3841L186.3045,140.9807L189.1151,140.9273L191.9258,140.2819L194.7365,140.4511
            L197.5472,140.3089L200.3579,139.8612L203.1686,139.7761L205.9793,139.2679L208.7900,138.6088L211.6007,138.7641L214.4113,138.4490L217.2220,138.5914L220.0327,138.1306L222.8434,138.0597
            L225.6541,138.3908L228.4648,138.0321L231.2755,138.1509L234.0861,138.4472L236.8968,138.3891L239.7075,138.6472L242.5182,138.5387L245.3289,138.6046L248.1396,139.0590L250.9503,138.8122
            L253.7610,139.6548L256.5716,139.7918L259.3823,139.8246L262.1930,140.0853L265.0037,140.3931L267.8144,141.3230L270.6251,141.4533L273.4358,141.9855L276.2465,142.6475L279.0572,143.4092
            L281.8679,143.6890L284.6786,143.9616L287.4893,144.8440L290.2999,144.6970L293.1106,145.4165L295.9213,145.6379L298.7320,145.6614L301.5427,145.9841L304.3534,146.4922L307.1640,146.7684
            L309.9747,146.6743L312.7854,146.9000L315.5961,146.6908L318.4068,147.0115L321.2175,146.4149L324.0282,146.0365L326.8388,145.8915L329.6495,145.1711L332.4602,145.1489L335.2709,144.5739
            L338.0816,144.1625L340.8923,143.9369L343.7030,143.4873L346.5137,142.6090L349.3244,142.0125L352.1351,141.6262L354.9458,141.5067L357.7564,140.9716L360.5671,140.0129L363.3778,139.9291
            L366.1885,139.0658L368.9992,138.4119L371.8099,138.1668L374.6206,137.8055L377.4313,136.9441L380.2420,136.8420L383.0526,136.4357L385.8633,135.9855L388.6740,135.7761L391.4847,135.8326
            L394.2954,135.4905L397.1061,135.6330L399.9168,135.2789L402.7274,134.7793L405.5381,135.0649L408.3488,134.9530L411.1595,134.9759L413.9702,134.7268L416.7809,134.4454L419.5916,134.3544
            L422.4023,134.2945L425.2129,133.9150L428.0236,134.2340L430.8343,134.1852L433.6450,134.1713L436.4557,134.1535L439.2664,134.0542L442.0771,133.8076L444.8878,133.8722L447.6985,133.9742
            L450.5092,133.8848L453.3199,134.1179L456.1306,133.9930L458.9412,133.4983L461.7520,133.3300L464.5628,133.8636L467.3731,133.4211L470.1839,133.2490L472.9947,132.4356L475.8055,132.3599
            L478.6158,132.1839L481.4266,132.2320L484.2374,132.2447L487.0482,131.7307L489.8590,131.5280L492.6693,131.4451L495.4801,131.1078L498.2909,130.8079L501.1017,130.4506L503.9120,130.4676
            L506.7228,129.8798L509.5336,129.6819L512.3444,129.6985L515.1552,129.6352L517.9655,129.0871L520.7763,129.0262L523.5871,128.6185L526.3978,128.9926L529.2086,128.5959L532.0189,128.4565
            L534.8297,128.3180L537.6405,128.0871L540.4513,128.1120L543.2616,127.7094L546.0724,128.1751L548.8832,127.5347L551.6940,127.1874L554.5048,127.1694L557.3151,126.6644L560.1259,126.2423
            L562.9367,126.1251L565.7475,126.2394L568.5583,125.8126L571.3686,125.9394L574.1794,125.6046L576.9902,125.7804L579.8010,125.3567L582.6113,125.4194L585.4221,125.1650L588.2329,125.1921
            L591.0437,125.1378L593.8544,125.0462L596.6647,125.2000L599.4755,124.8096L602.2863,124.4679L605.0971,124.6837L607.9079,124.4780L610.7182,124.3053L613.5290,124.3447L616.3398,124.0965
            L619.1506,123.7808L621.9609,124.1301L624.7717,123.8017L627.5825,123.8697L630.3933,123.4412L633.2041,123.6197L636.0144,123.3039L638.8252,123.4009L641.6360,122.5850L644.4468,122.5038
            L647.2576,122.3682L650.0679,122.1211L652.8787,122.1523L655.6895,121.7524L658.5002,122.7466L661.3106,122.4183L664.1213,122.7951L666.9321,125.5162L669.7429,117.5714L672.5537,112.1276"/>
  </g>
  <g style="fill:none; stroke:#FF0000; stroke-width:  1.8360; stroke-linecap:butt; stroke-linejoin:miter; stroke-dasharray:none">
   <path d="M113.2266,504.0587L116.0373,417.3234L118.8480,349.8503L121.6586,297.3337L124.4693,257.0782L127.2800,226.1208L130.0907,202.5623L132.9014,184.9942L135.7121,171.3108L138.5227,160.9580
            L141.3334,153.0548L144.1441,147.0738L146.9548,142.6506L149.7655,139.1631L152.5762,136.8234L155.3869,134.9513L158.1975,133.5573L161.0082,132.4257L163.8189,131.9690L166.6296,131.3055
            L169.4403,131.0318L172.2510,130.7290L175.0617,131.1904L177.8724,130.9670L180.6831,130.6471L183.4938,130.4846L186.3045,130.2531L189.1151,130.3693L191.9258,129.8914L194.7365,130.2259
            L197.5472,130.2471L200.3579,129.9607L203.1686,130.0351L205.9793,129.6843L208.7900,129.1809L211.6007,129.4899L214.4113,129.3269L217.2220,129.6196L220.0327,129.3074L222.8434,129.3834
            L225.6541,129.8598L228.4648,129.6449L231.2755,129.9059L234.0861,130.3429L236.8968,130.4239L239.7075,130.8198L242.5182,130.8476L245.3289,131.0484L248.1396,131.6364L250.9503,131.5217
            L253.7610,132.4952L256.5716,132.7619L259.3823,132.9230L262.1930,133.3108L265.0037,133.7445L267.8144,134.7991L270.6251,135.0529L273.4358,135.7075L276.2465,136.4907L279.0572,137.3726
            L281.8679,137.7714L284.6786,138.1620L287.4893,139.1614L290.2999,139.1303L293.1106,139.9647L295.9213,140.3001L298.7320,140.4365L301.5427,140.8712L304.3534,141.4904L307.1640,141.8767
            L309.9747,141.8917L312.7854,142.2257L315.5961,142.1240L318.4068,142.5511L321.2175,142.0603L324.0282,141.7868L326.8388,141.7457L329.6495,141.1286L332.4602,141.2088L335.2709,140.7354
            L338.0816,140.4249L340.8923,140.2993L343.7030,139.9490L346.5137,139.1693L349.3244,138.6707L352.1351,138.3814L354.9458,138.3584L357.7564,137.9190L360.5671,137.0553L363.3778,137.0658
            L366.1885,136.2962L368.9992,135.7354L371.8099,135.5826L374.6206,135.3130L377.4313,134.5427L380.2420,134.5311L383.0526,134.2146L385.8633,133.8537L388.6740,133.7329L391.4847,133.8774
            L394.2954,133.6227L397.1061,133.8522L399.9168,133.5844L402.7274,133.1705L405.5381,133.5412L408.3488,133.5140L411.1595,133.6210L413.9702,133.4555L416.7809,133.2571L419.5916,133.2487
            L422.4023,133.2708L425.2129,132.9728L428.0236,133.3728L430.8343,133.4044L433.6450,133.4706L436.4557,133.5323L439.2664,133.5121L442.0771,133.3440L444.8878,133.4868L447.6985,133.6665
            L450.5092,133.6543L453.3199,133.9641L456.1306,133.9155L458.9412,133.4967L461.7520,133.4038L464.5628,134.0124L467.3731,133.6445L470.1839,133.5466L472.9947,132.8070L475.8055,132.8046
            L478.6158,132.7015L481.4266,132.8221L484.2374,132.9070L487.0482,132.4647L489.8590,132.3334L492.6693,132.3214L495.4801,132.0548L498.2909,131.8251L501.1017,131.5376L503.9120,131.6240
            L506.7228,131.1054L509.5336,130.9763L512.3444,131.0612L515.1552,131.0660L517.9655,130.5855L520.7763,130.5920L523.5871,130.2513L526.3978,130.6920L529.2086,130.3617L532.0189,130.2883
            L534.8297,130.2155L537.6405,130.0499L540.4513,130.1398L543.2616,129.8019L546.0724,130.3320L548.8832,129.7557L551.6940,129.4721L554.5048,129.5176L557.3151,129.0756L560.1259,128.7164
            L562.9367,128.6618L565.7475,128.8384L568.5583,128.4735L571.3686,128.6619L574.1794,128.3885L576.9902,128.6254L579.8010,128.2625L582.6113,128.3857L585.4221,128.1916L588.2329,128.2788
            L591.0437,128.2841L593.8544,128.2520L596.6647,128.4650L599.4755,128.1335L602.2863,127.8504L605.0971,128.1246L607.9079,127.9771L610.7182,127.8622L613.5290,127.9592L616.3398,127.7684
            L619.1506,127.5098L621.9609,127.9160L624.7717,127.6442L627.5825,127.7686L630.3933,127.3963L633.2041,127.6307L636.0144,127.3705L638.8252,127.5230L641.6360,126.7623L644.4468,126.7361
            L647.2576,126.6552L650.0679,126.4626L652.8787,126.5481L655.6895,126.2023L658.5002,127.2504L661.3106,126.9757L664.1213,127.4060L666.9321,130.1803L669.7429,122.2884L672.5537,116.8975"/>
  </g>
  <g style="fill:none; stroke:#000000; stroke-width:  0.9180; stroke-linecap:butt; stroke-linejoin:miter; stroke-dasharray:none">
   <path d="M91.8000,91.8000L703.8000,91.8000"/>
   <path d="M91.8000,520.2000L703.8000,520.2000"/>
   <path d="M91.8000,91.8000L91.8000,97.9200"/>
   <path d="M91.8000,520.2000L91.8000,514.0800"/>
   <path d="M336.6000,91.8000L336.6000,97.9200"/>
   <path d="M336.6000,520.2000L336.6000,514.0800"/>
   <path d="M581.4000,91.8000L581.4000,97.9200"/>
   <path d="M581.4000,520.2000L581.4000,514.0800"/>
   <path d="M214.2000,91.8000L214.2000,104.0400"/>
   <path d="M214.2000,520.2000L214.2000,507.9600"/>
   <path d="M459.0000,91.8000L459.0000,104.0400"/>
   <path d="M459.0000,520.2000L459.0000,507.9600"/>
   <path d="M703.8000,91.8000L703.8000,104.0400"/>
   <path d="M703.8000,520.2000L703.8000,507.9600"/>
  </g>
  <g style="fill:#000000; fill-rule:nonzero">
   <text   style="font-family:'Times','Nimbus Roman No9 L'; font-style:normal; font-weight:normal; font-size:612.0000" transform="matrix(0.0280,0.0000,-0.0000,-0.0280,203.7000,73.6800)">0.5</text>
   <text   style="font-family:'Times','Nimbus Roman No9 L'; font-style:normal; font-weight:normal; font-size:612.0000" transform="matrix(0.0280,0.0000,-0.0000,-0.0280,455.5000,73.6800)">1</text>
   <text   style="font-family:'Times','Nimbus Roman No9 L'; font-style:normal; font-weight:normal; font-size:612.0000" transform="matrix(0.0280,0.0000,-0.0000,-0.0280,693.3000,73.6800)">1.5</text>
   <text   style="font-family:'Symbol','Standard Symbols L'; font-style:normal; font-weight:normal; font-size:612.0000" transform="matrix(0.0280,0.0000,-0.0000,-0.0280,375.3000,54.5600)">x</text>
   <text   style="font-family:'Times','Nimbus Roman No9 L'; font-style:normal; font-weight:normal; font-size:612.0000" transform="matrix(0.0280,0.0000,-0.0000,-0.0280,383.3000,54.5600)"> (nm)</text>
  </g>
  <g style="fill:none; stroke:#000000; stroke-width:  0.9180; stroke-linecap:butt; stroke-linejoin:miter; stroke-dasharray:none">
   <path d="M91.8000,91.8000L91.8000,520.2000"/>
   <path d="M703.8000,91.8000L703.8000,520.2000"/>
   <path d="M91.8000,122.4000L97.9200,122.4000"/>
   <path d="M703.8000,122.4000L697.6800,122.4000"/>
   <path d="M91.8000,183.6000L97.9200,183.6000"/>
   <path d="M703.8000,183.6000L697.6800,183.6000"/>
   <path d="M91.8000,244.8000L97.9200,244.8000"/>
   <path d="M703.8000,244.8000L697.6800,244.8000"/>
   <path d="M91.8000,306.0000L97.9200,306.0000"/>
   <path d="M703.8000,306.0000L697.6800,306.0000"/>
   <path d="M91.8000,367.2000L97.9200,367.2000"/>
   <path d="M703.8000,367.2000L697.6800,367.2000"/>
   <path d="M91.8000,428.4000L97.9200,428.4000"/>
   <path d="M703.8000,428.4000L697.6800,428.4000"/>
   <path d="M91.8000,489.6000L97.9200,489.6000"/>
   <path d="M703.8000,489.6000L697.6800,489.6000"/>
   <path d="M91.8000,91.8000L104.0400,91.8000"/>
   <path d="M703.8000,91.8000L691.5600,91.8000"/>
   <path d="M91.8000,153.0000L104.0400,153.0000"/>
   <path d="M703.8000,153.0000L691.5600,153.0000"/>
   <path d="M91.8000,214.2000L104.0400,214.2000"/>
   <path d="M703.8000,214.2000L691.5600,214.2000"/>
   <path d="M91.8000,275.4000L104.0400,275.4000"/>
   <path d="M703.8000,275.4000L691.5600,275.4000"/>
   <path d="M91.8000,336.6000L104.0400,336.6000"/>
   <path d="M703.8000,336.6000L691.5600,336.6000"/>
   <path d="M91.8000,397.8000L104.0400,397.8000"/>
   <path d="M703.8000,397.8000L691.5600,397.8000"/>
   <path d="M91.8000,459.0000L104.0400,459.0000"/>
   <path d="M703.8000,459.0000L691.5600,459.0000"/>
   <path d="M91.8000,520.2000L104.0400,520.2000"/>
   <path d="M703.8000,520.2000L691.5600,520.2000"/>
  </g>
  <g style="fill:#000000; fill-rule:nonzero">
   <text   style="font-family:'Times','Nimbus Roman No9 L'; font-style:normal; font-weight:normal; font-size:612.0000" transform="matrix(0.0280,0.0000,-0.0000,-0.0280,63.6800,86.3000)">-70</text>
   <text   style="font-family:'Times','Nimbus Roman No9 L'; font-style:normal; font-weight:normal; font-size:612.0000" transform="matrix(0.0280,0.0000,-0.0000,-0.0280,63.6800,147.0000)">-60</text>
   <text   style="font-family:'Times','Nimbus Roman No9 L'; font-style:normal; font-weight:normal; font-size:612.0000" transform="matrix(0.0280,0.0000,-0.0000,-0.0280,63.6800,208.2000)">-50</text>
   <text   style="font-family:'Times','Nimbus Roman No9 L'; font-style:normal; font-weight:normal; font-size:612.0000" transform="matrix(0.0280,0.0000,-0.0000,-0.0280,63.6800,269.9000)">-40</text>
   <text   style="font-family:'Times','Nimbus Roman No9 L'; font-style:normal; font-weight:normal; font-size:612.0000" transform="matrix(0.0280,0.0000,-0.0000,-0.0280,63.6800,331.1000)">-30</text>
   <text   style="font-family:'Times','Nimbus Roman No9 L'; font-style:normal; font-weight:normal; font-size:612.0000" transform="matrix(0.0280,0.0000,-0.0000,-0.0280,63.6800,392.3000)">-20</text>
   <text   style="font-family:'Times','Nimbus Roman No9 L'; font-style:normal; font-weight:normal; font-size:612.0000" transform="matrix(0.0280,0.0000,-0.0000,-0.0280,63.6800,453.0000)">-10</text>
   <text   style="font-family:'Times','Nimbus Roman No9 L'; font-style:normal; font-weight:normal; font-size:612.0000" transform="matrix(0.0280,0.0000,-0.0000,-0.0280,77.6800,514.7000)">0</text>
   <text   style="font-family:'Times','Nimbus Roman No9 L'; font-style:normal; font-weight:normal; font-size:612.0000" transform="matrix(0.0000,0.0280,0.0280,-0.0000,53.5600,265.0000)">E (kJ mol</text>
   <text   style="font-family:'Times','Nimbus Roman No9 L'; font-style:normal; font-weight:normal; font-size:612.0000" transform="matrix(0.0000,0.0198,0.0198,-0.0000,43.2784,332.0000)">-1</text>
   <text   style="font-family:'Times','Nimbus Roman No9 L'; font-style:normal; font-weight:normal; font-size:612.0000" transform="matrix(0.0000,0.0280,0.0280,-0.0000,53.5600,342.0000)">)</text>
  </g>
  <g style="fill:none; stroke:#000000; stroke-width:  0.9180; stroke-linecap:butt; stroke-linejoin:miter; stroke-dasharray:none">
   <path d="M91.8000,91.8000L91.8000,520.2000L703.8000,520.2000L703.8000,91.8000z"/>
  </g>
  <g style="fill:#FFFFFF; fill-rule:nonzero">
   <path  d="M367.2000,489.6000L367.2000,443.2400L592.0780,443.2400L592.0780,489.6000z"/>
  </g>
  <g style="fill:none; stroke:#000000; stroke-width:  0.9180; stroke-linecap:butt; stroke-linejoin:miter; stroke-dasharray:none">
   <path d="M367.2000,489.6000L367.2000,443.2400L592.0780,443.2400L592.0780,489.6000z"/>
  </g>
  <g style="fill:#000000; fill-rule:nonzero">
   <text   style="font-family:'Times','Nimbus Roman No9 L'; font-style:normal; font-weight:normal; font-size:612.0000" transform="matrix(0.0280,0.0000,-0.0000,-0.0280,410.9580,471.4800)">Uncorrected US Potential</text>
  </g>
  <g style="fill:none; stroke:#000000; stroke-width:  1.8360; stroke-linecap:butt; stroke-linejoin:miter; stroke-dasharray:none">
   <path d="M374.2380,477.4800L398.7180,477.4800"/>
  </g>
  <g style="fill:#000000; fill-rule:nonzero">
   <text   style="font-family:'Times','Nimbus Roman No9 L'; font-style:normal; font-weight:normal; font-size:612.0000" transform="matrix(0.0280,0.0000,-0.0000,-0.0280,410.9580,453.3600)">Corrected US potential</text>
  </g>
  <g style="fill:none; stroke:#FF0000; stroke-width:  1.8360; stroke-linecap:butt; stroke-linejoin:miter; stroke-dasharray:none">
   <path d="M374.2380,457.3600L398.7180,457.3600"/>
  </g>
  <g style="fill:#000000; fill-rule:nonzero">
   <text   style="font-family:'Times','Nimbus Roman No9 L'; font-style:normal; font-weight:normal; font-size:612.0000" transform="matrix(0.0420,0.0000,-0.0000,-0.0420,292.3000,562.9200)">Pyrimidine US PMF</text>
  </g>
 </g>
</svg>
